G75*
%MOIN*%
%OFA0B0*%
%FSLAX24Y24*%
%IPPOS*%
%LPD*%
%AMOC8*
5,1,8,0,0,1.08239X$1,22.5*
%
%ADD10C,0.0000*%
%ADD11R,0.0591X0.0197*%
%ADD12R,0.0197X0.0591*%
%ADD13R,0.0780X0.0220*%
%ADD14R,0.0200X0.0580*%
%ADD15R,0.0670X0.0180*%
%ADD16R,0.0220X0.0500*%
%ADD17C,0.0600*%
%ADD18R,0.0220X0.0700*%
%ADD19C,0.0740*%
%ADD20OC8,0.0850*%
%ADD21C,0.0660*%
%ADD22OC8,0.0660*%
%ADD23C,0.0100*%
%ADD24C,0.0120*%
%ADD25C,0.0240*%
D10*
X000130Y000160D02*
X000130Y018656D01*
X039000Y018656D01*
X039000Y000160D01*
X000130Y000160D01*
D11*
G36*
X008679Y004048D02*
X008263Y003632D01*
X008125Y003770D01*
X008541Y004186D01*
X008679Y004048D01*
G37*
G36*
X008902Y003825D02*
X008486Y003409D01*
X008348Y003547D01*
X008764Y003963D01*
X008902Y003825D01*
G37*
G36*
X009124Y003602D02*
X008708Y003186D01*
X008570Y003324D01*
X008986Y003740D01*
X009124Y003602D01*
G37*
G36*
X009347Y003380D02*
X008931Y002964D01*
X008793Y003102D01*
X009209Y003518D01*
X009347Y003380D01*
G37*
G36*
X009570Y003157D02*
X009154Y002741D01*
X009016Y002879D01*
X009432Y003295D01*
X009570Y003157D01*
G37*
G36*
X009792Y002934D02*
X009376Y002518D01*
X009238Y002656D01*
X009654Y003072D01*
X009792Y002934D01*
G37*
G36*
X010015Y002712D02*
X009599Y002296D01*
X009461Y002434D01*
X009877Y002850D01*
X010015Y002712D01*
G37*
G36*
X010238Y002489D02*
X009822Y002073D01*
X009684Y002211D01*
X010100Y002627D01*
X010238Y002489D01*
G37*
G36*
X010460Y002266D02*
X010044Y001850D01*
X009906Y001988D01*
X010322Y002404D01*
X010460Y002266D01*
G37*
G36*
X010683Y002044D02*
X010267Y001628D01*
X010129Y001766D01*
X010545Y002182D01*
X010683Y002044D01*
G37*
G36*
X010906Y001821D02*
X010490Y001405D01*
X010352Y001543D01*
X010768Y001959D01*
X010906Y001821D01*
G37*
G36*
X014135Y005050D02*
X013719Y004634D01*
X013581Y004772D01*
X013997Y005188D01*
X014135Y005050D01*
G37*
G36*
X013912Y005273D02*
X013496Y004857D01*
X013358Y004995D01*
X013774Y005411D01*
X013912Y005273D01*
G37*
G36*
X013690Y005496D02*
X013274Y005080D01*
X013136Y005218D01*
X013552Y005634D01*
X013690Y005496D01*
G37*
G36*
X013467Y005718D02*
X013051Y005302D01*
X012913Y005440D01*
X013329Y005856D01*
X013467Y005718D01*
G37*
G36*
X013244Y005941D02*
X012828Y005525D01*
X012690Y005663D01*
X013106Y006079D01*
X013244Y005941D01*
G37*
G36*
X013022Y006164D02*
X012606Y005748D01*
X012468Y005886D01*
X012884Y006302D01*
X013022Y006164D01*
G37*
G36*
X012799Y006386D02*
X012383Y005970D01*
X012245Y006108D01*
X012661Y006524D01*
X012799Y006386D01*
G37*
G36*
X012576Y006609D02*
X012160Y006193D01*
X012022Y006331D01*
X012438Y006747D01*
X012576Y006609D01*
G37*
G36*
X012354Y006832D02*
X011938Y006416D01*
X011800Y006554D01*
X012216Y006970D01*
X012354Y006832D01*
G37*
G36*
X012131Y007054D02*
X011715Y006638D01*
X011577Y006776D01*
X011993Y007192D01*
X012131Y007054D01*
G37*
G36*
X011908Y007277D02*
X011492Y006861D01*
X011354Y006999D01*
X011770Y007415D01*
X011908Y007277D01*
G37*
D12*
G36*
X010906Y006999D02*
X010768Y006861D01*
X010352Y007277D01*
X010490Y007415D01*
X010906Y006999D01*
G37*
G36*
X010683Y006776D02*
X010545Y006638D01*
X010129Y007054D01*
X010267Y007192D01*
X010683Y006776D01*
G37*
G36*
X010460Y006554D02*
X010322Y006416D01*
X009906Y006832D01*
X010044Y006970D01*
X010460Y006554D01*
G37*
G36*
X010238Y006331D02*
X010100Y006193D01*
X009684Y006609D01*
X009822Y006747D01*
X010238Y006331D01*
G37*
G36*
X010015Y006108D02*
X009877Y005970D01*
X009461Y006386D01*
X009599Y006524D01*
X010015Y006108D01*
G37*
G36*
X009792Y005886D02*
X009654Y005748D01*
X009238Y006164D01*
X009376Y006302D01*
X009792Y005886D01*
G37*
G36*
X009570Y005663D02*
X009432Y005525D01*
X009016Y005941D01*
X009154Y006079D01*
X009570Y005663D01*
G37*
G36*
X009347Y005440D02*
X009209Y005302D01*
X008793Y005718D01*
X008931Y005856D01*
X009347Y005440D01*
G37*
G36*
X009124Y005218D02*
X008986Y005080D01*
X008570Y005496D01*
X008708Y005634D01*
X009124Y005218D01*
G37*
G36*
X008902Y004995D02*
X008764Y004857D01*
X008348Y005273D01*
X008486Y005411D01*
X008902Y004995D01*
G37*
G36*
X008679Y004772D02*
X008541Y004634D01*
X008125Y005050D01*
X008263Y005188D01*
X008679Y004772D01*
G37*
G36*
X013022Y002656D02*
X012884Y002518D01*
X012468Y002934D01*
X012606Y003072D01*
X013022Y002656D01*
G37*
G36*
X012799Y002434D02*
X012661Y002296D01*
X012245Y002712D01*
X012383Y002850D01*
X012799Y002434D01*
G37*
G36*
X012576Y002211D02*
X012438Y002073D01*
X012022Y002489D01*
X012160Y002627D01*
X012576Y002211D01*
G37*
G36*
X012354Y001988D02*
X012216Y001850D01*
X011800Y002266D01*
X011938Y002404D01*
X012354Y001988D01*
G37*
G36*
X012131Y001766D02*
X011993Y001628D01*
X011577Y002044D01*
X011715Y002182D01*
X012131Y001766D01*
G37*
G36*
X011908Y001543D02*
X011770Y001405D01*
X011354Y001821D01*
X011492Y001959D01*
X011908Y001543D01*
G37*
G36*
X013244Y002879D02*
X013106Y002741D01*
X012690Y003157D01*
X012828Y003295D01*
X013244Y002879D01*
G37*
G36*
X013467Y003102D02*
X013329Y002964D01*
X012913Y003380D01*
X013051Y003518D01*
X013467Y003102D01*
G37*
G36*
X013690Y003324D02*
X013552Y003186D01*
X013136Y003602D01*
X013274Y003740D01*
X013690Y003324D01*
G37*
G36*
X013912Y003547D02*
X013774Y003409D01*
X013358Y003825D01*
X013496Y003963D01*
X013912Y003547D01*
G37*
G36*
X014135Y003770D02*
X013997Y003632D01*
X013581Y004048D01*
X013719Y004186D01*
X014135Y003770D01*
G37*
D13*
X032780Y010910D03*
X032780Y011410D03*
X032780Y011910D03*
X032780Y012410D03*
X032780Y012910D03*
X032780Y013410D03*
X032780Y013910D03*
X032780Y014410D03*
X032780Y014910D03*
X032780Y015410D03*
X036480Y015410D03*
X036480Y014910D03*
X036480Y014410D03*
X036480Y013910D03*
X036480Y013410D03*
X036480Y012910D03*
X036480Y012410D03*
X036480Y011910D03*
X036480Y011410D03*
X036480Y010910D03*
D14*
G36*
X031114Y005558D02*
X030973Y005699D01*
X031382Y006108D01*
X031523Y005967D01*
X031114Y005558D01*
G37*
G36*
X031333Y005339D02*
X031192Y005480D01*
X031601Y005889D01*
X031742Y005748D01*
X031333Y005339D01*
G37*
G36*
X031559Y005113D02*
X031418Y005254D01*
X031827Y005663D01*
X031968Y005522D01*
X031559Y005113D01*
G37*
G36*
X031778Y004894D02*
X031637Y005035D01*
X032046Y005444D01*
X032187Y005303D01*
X031778Y004894D01*
G37*
G36*
X032005Y004667D02*
X031864Y004808D01*
X032273Y005217D01*
X032414Y005076D01*
X032005Y004667D01*
G37*
G36*
X032224Y004448D02*
X032083Y004589D01*
X032492Y004998D01*
X032633Y004857D01*
X032224Y004448D01*
G37*
G36*
X032450Y004222D02*
X032309Y004363D01*
X032718Y004772D01*
X032859Y004631D01*
X032450Y004222D01*
G37*
G36*
X032669Y004003D02*
X032528Y004144D01*
X032937Y004553D01*
X033078Y004412D01*
X032669Y004003D01*
G37*
G36*
X032528Y003676D02*
X032669Y003817D01*
X033078Y003408D01*
X032937Y003267D01*
X032528Y003676D01*
G37*
G36*
X032309Y003457D02*
X032450Y003598D01*
X032859Y003189D01*
X032718Y003048D01*
X032309Y003457D01*
G37*
G36*
X032083Y003231D02*
X032224Y003372D01*
X032633Y002963D01*
X032492Y002822D01*
X032083Y003231D01*
G37*
G36*
X031864Y003012D02*
X032005Y003153D01*
X032414Y002744D01*
X032273Y002603D01*
X031864Y003012D01*
G37*
G36*
X031637Y002785D02*
X031778Y002926D01*
X032187Y002517D01*
X032046Y002376D01*
X031637Y002785D01*
G37*
G36*
X031418Y002566D02*
X031559Y002707D01*
X031968Y002298D01*
X031827Y002157D01*
X031418Y002566D01*
G37*
G36*
X031192Y002340D02*
X031333Y002481D01*
X031742Y002072D01*
X031601Y001931D01*
X031192Y002340D01*
G37*
G36*
X030973Y002121D02*
X031114Y002262D01*
X031523Y001853D01*
X031382Y001712D01*
X030973Y002121D01*
G37*
G36*
X030378Y001712D02*
X030237Y001853D01*
X030646Y002262D01*
X030787Y002121D01*
X030378Y001712D01*
G37*
G36*
X030159Y001931D02*
X030018Y002072D01*
X030427Y002481D01*
X030568Y002340D01*
X030159Y001931D01*
G37*
G36*
X029933Y002157D02*
X029792Y002298D01*
X030201Y002707D01*
X030342Y002566D01*
X029933Y002157D01*
G37*
G36*
X029714Y002376D02*
X029573Y002517D01*
X029982Y002926D01*
X030123Y002785D01*
X029714Y002376D01*
G37*
G36*
X029487Y002603D02*
X029346Y002744D01*
X029755Y003153D01*
X029896Y003012D01*
X029487Y002603D01*
G37*
G36*
X029268Y002822D02*
X029127Y002963D01*
X029536Y003372D01*
X029677Y003231D01*
X029268Y002822D01*
G37*
G36*
X029042Y003048D02*
X028901Y003189D01*
X029310Y003598D01*
X029451Y003457D01*
X029042Y003048D01*
G37*
G36*
X028823Y003267D02*
X028682Y003408D01*
X029091Y003817D01*
X029232Y003676D01*
X028823Y003267D01*
G37*
G36*
X028682Y004412D02*
X028823Y004553D01*
X029232Y004144D01*
X029091Y004003D01*
X028682Y004412D01*
G37*
G36*
X028901Y004631D02*
X029042Y004772D01*
X029451Y004363D01*
X029310Y004222D01*
X028901Y004631D01*
G37*
G36*
X029127Y004857D02*
X029268Y004998D01*
X029677Y004589D01*
X029536Y004448D01*
X029127Y004857D01*
G37*
G36*
X029346Y005076D02*
X029487Y005217D01*
X029896Y004808D01*
X029755Y004667D01*
X029346Y005076D01*
G37*
G36*
X029573Y005303D02*
X029714Y005444D01*
X030123Y005035D01*
X029982Y004894D01*
X029573Y005303D01*
G37*
G36*
X029792Y005522D02*
X029933Y005663D01*
X030342Y005254D01*
X030201Y005113D01*
X029792Y005522D01*
G37*
G36*
X030018Y005748D02*
X030159Y005889D01*
X030568Y005480D01*
X030427Y005339D01*
X030018Y005748D01*
G37*
G36*
X030237Y005967D02*
X030378Y006108D01*
X030787Y005699D01*
X030646Y005558D01*
X030237Y005967D01*
G37*
D15*
X027900Y012410D03*
X027900Y012910D03*
X027900Y013410D03*
X027900Y013910D03*
X027900Y014410D03*
X027900Y014910D03*
X027900Y015410D03*
X027900Y015910D03*
X025860Y015910D03*
X025860Y015410D03*
X025860Y014910D03*
X025860Y014410D03*
X025860Y013910D03*
X025860Y013410D03*
X025860Y012910D03*
X025860Y012410D03*
D16*
X021000Y011670D03*
X020630Y011670D03*
X020260Y011670D03*
X020260Y010650D03*
X020630Y010650D03*
X021000Y010650D03*
X017000Y010650D03*
X016630Y010650D03*
X016260Y010650D03*
X016260Y011670D03*
X016630Y011670D03*
X017000Y011670D03*
X017000Y015650D03*
X016630Y015650D03*
X016260Y015650D03*
X016260Y016670D03*
X016630Y016670D03*
X017000Y016670D03*
X020260Y016670D03*
X020630Y016670D03*
X021000Y016670D03*
X021000Y015650D03*
X020630Y015650D03*
X020260Y015650D03*
D17*
X020630Y014960D02*
X020630Y014360D01*
X019630Y014360D02*
X019630Y014960D01*
X017630Y014960D02*
X017630Y014360D01*
X016630Y014360D02*
X016630Y014960D01*
X015630Y014960D02*
X015630Y014360D01*
X015630Y012960D02*
X015630Y012360D01*
X016630Y012360D02*
X016630Y012960D01*
X017630Y012960D02*
X017630Y012360D01*
X019630Y012360D02*
X019630Y012960D01*
X020630Y012960D02*
X020630Y012360D01*
X021630Y012360D02*
X021630Y012960D01*
X024080Y012660D02*
X024680Y012660D01*
X024680Y011660D02*
X024080Y011660D01*
X024080Y010660D02*
X024680Y010660D01*
X021630Y009960D02*
X021630Y009360D01*
X020630Y009360D02*
X020630Y009960D01*
X019630Y009960D02*
X019630Y009360D01*
X017630Y009360D02*
X017630Y009960D01*
X016630Y009960D02*
X016630Y009360D01*
X015630Y009360D02*
X015630Y009960D01*
X013630Y009960D02*
X013630Y009360D01*
X012630Y009360D02*
X012630Y009960D01*
X011630Y009960D02*
X011630Y009360D01*
X010630Y009360D02*
X010630Y009960D01*
X009630Y009960D02*
X009630Y009360D01*
X008630Y009360D02*
X008630Y009960D01*
X007630Y009960D02*
X007630Y009360D01*
X006630Y009360D02*
X006630Y009960D01*
X005630Y009960D02*
X005630Y009360D01*
X004630Y009360D02*
X004630Y009960D01*
X003630Y009960D02*
X003630Y009360D01*
X002630Y009360D02*
X002630Y009960D01*
X001630Y009960D02*
X001630Y009360D01*
X000630Y009360D02*
X000630Y009960D01*
X000630Y008210D02*
X000630Y007610D01*
X001630Y007610D02*
X001630Y008210D01*
X002630Y008210D02*
X002630Y007610D01*
X003630Y007610D02*
X003630Y008210D01*
X004630Y008210D02*
X004630Y007610D01*
X005630Y007610D02*
X005630Y008210D01*
X006630Y008210D02*
X006630Y007610D01*
X007630Y007610D02*
X007630Y008210D01*
X008630Y008210D02*
X008630Y007610D01*
X009630Y007610D02*
X009630Y008210D01*
X010630Y008210D02*
X010630Y007610D01*
X011630Y007610D02*
X011630Y008210D01*
X012630Y008210D02*
X012630Y007610D01*
X013630Y007610D02*
X013630Y008210D01*
X014630Y008210D02*
X014630Y007610D01*
X015630Y007610D02*
X015630Y008210D01*
X016630Y008210D02*
X016630Y007610D01*
X017630Y007610D02*
X017630Y008210D01*
X018630Y008210D02*
X018630Y007610D01*
X019630Y007610D02*
X019630Y008210D01*
X020630Y008210D02*
X020630Y007610D01*
X021630Y007610D02*
X021630Y008210D01*
X023380Y007210D02*
X023380Y006610D01*
X024380Y006610D02*
X024380Y007210D01*
X025380Y007210D02*
X025380Y006610D01*
X026380Y006610D02*
X026380Y007210D01*
X027380Y007210D02*
X027380Y006610D01*
X028380Y006610D02*
X028380Y007210D01*
X029380Y007210D02*
X029380Y006610D01*
X030380Y006610D02*
X030380Y007210D01*
X031380Y007210D02*
X031380Y006610D01*
X032380Y006610D02*
X032380Y007210D01*
X033380Y007210D02*
X033380Y006610D01*
X034380Y006610D02*
X034380Y007210D01*
X035380Y007210D02*
X035380Y006610D01*
X036380Y006610D02*
X036380Y007210D01*
X037380Y007210D02*
X037380Y006610D01*
X038380Y006610D02*
X038380Y007210D01*
X038430Y008660D02*
X037830Y008660D01*
X037830Y009660D02*
X038430Y009660D01*
X038430Y010660D02*
X037830Y010660D01*
X037830Y011660D02*
X038430Y011660D01*
X038430Y012660D02*
X037830Y012660D01*
X037830Y013660D02*
X038430Y013660D01*
X038430Y014660D02*
X037830Y014660D01*
X037830Y015660D02*
X038430Y015660D01*
X038430Y016660D02*
X037830Y016660D01*
X037830Y017660D02*
X038430Y017660D01*
X031430Y017660D02*
X030830Y017660D01*
X029680Y017660D02*
X029080Y017660D01*
X029080Y016660D02*
X029680Y016660D01*
X030830Y016660D02*
X031430Y016660D01*
X031430Y015660D02*
X030830Y015660D01*
X029680Y015660D02*
X029080Y015660D01*
X029080Y014660D02*
X029680Y014660D01*
X030830Y014660D02*
X031430Y014660D01*
X031430Y013660D02*
X030830Y013660D01*
X029680Y013660D02*
X029080Y013660D01*
X029080Y012660D02*
X029680Y012660D01*
X030830Y012660D02*
X031430Y012660D01*
X031430Y011660D02*
X030830Y011660D01*
X029680Y011660D02*
X029080Y011660D01*
X029080Y010660D02*
X029680Y010660D01*
X030830Y010660D02*
X031430Y010660D01*
X031430Y009660D02*
X030830Y009660D01*
X030830Y008660D02*
X031430Y008660D01*
X024680Y013660D02*
X024080Y013660D01*
X024080Y014660D02*
X024680Y014660D01*
X024680Y015660D02*
X024080Y015660D01*
X024080Y016660D02*
X024680Y016660D01*
X024680Y017660D02*
X024080Y017660D01*
X021630Y017960D02*
X021630Y017360D01*
X020630Y017360D02*
X020630Y017960D01*
X019630Y017960D02*
X019630Y017360D01*
X017630Y017360D02*
X017630Y017960D01*
X016630Y017960D02*
X016630Y017360D01*
X015630Y017360D02*
X015630Y017960D01*
X013630Y017960D02*
X013630Y017360D01*
X012630Y017360D02*
X012630Y017960D01*
X011630Y017960D02*
X011630Y017360D01*
X010630Y017360D02*
X010630Y017960D01*
X009630Y017960D02*
X009630Y017360D01*
X008630Y017360D02*
X008630Y017960D01*
X007630Y017960D02*
X007630Y017360D01*
X006630Y017360D02*
X006630Y017960D01*
X005630Y017960D02*
X005630Y017360D01*
X004630Y017360D02*
X004630Y017960D01*
X003630Y017960D02*
X003630Y017360D01*
X002630Y017360D02*
X002630Y017960D01*
X001630Y017960D02*
X001630Y017360D01*
X000630Y017360D02*
X000630Y017960D01*
X021630Y014960D02*
X021630Y014360D01*
X021630Y001210D02*
X021630Y000610D01*
X020630Y000610D02*
X020630Y001210D01*
X019630Y001210D02*
X019630Y000610D01*
X018630Y000610D02*
X018630Y001210D01*
X017630Y001210D02*
X017630Y000610D01*
X016630Y000610D02*
X016630Y001210D01*
X015630Y001210D02*
X015630Y000610D01*
X014630Y000610D02*
X014630Y001210D01*
X013630Y001210D02*
X013630Y000610D01*
X012630Y000610D02*
X012630Y001210D01*
X011630Y001210D02*
X011630Y000610D01*
X010630Y000610D02*
X010630Y001210D01*
X009630Y001210D02*
X009630Y000610D01*
X008630Y000610D02*
X008630Y001210D01*
X007630Y001210D02*
X007630Y000610D01*
X006630Y000610D02*
X006630Y001210D01*
X005630Y001210D02*
X005630Y000610D01*
X004630Y000610D02*
X004630Y001210D01*
X003630Y001210D02*
X003630Y000610D01*
X002630Y000610D02*
X002630Y001210D01*
X001630Y001210D02*
X001630Y000610D01*
X000630Y000610D02*
X000630Y001210D01*
X023380Y001210D02*
X023380Y000610D01*
X024380Y000610D02*
X024380Y001210D01*
X025380Y001210D02*
X025380Y000610D01*
X026380Y000610D02*
X026380Y001210D01*
X027380Y001210D02*
X027380Y000610D01*
X028380Y000610D02*
X028380Y001210D01*
X029380Y001210D02*
X029380Y000610D01*
X030380Y000610D02*
X030380Y001210D01*
X031380Y001210D02*
X031380Y000610D01*
X032380Y000610D02*
X032380Y001210D01*
X033380Y001210D02*
X033380Y000610D01*
X034380Y000610D02*
X034380Y001210D01*
X035380Y001210D02*
X035380Y000610D01*
X036380Y000610D02*
X036380Y001210D01*
X037380Y001210D02*
X037380Y000610D01*
X038380Y000610D02*
X038380Y001210D01*
D18*
X010380Y011480D03*
X009880Y011480D03*
X009380Y011480D03*
X008880Y011480D03*
X008380Y011480D03*
X007880Y011480D03*
X007380Y011480D03*
X006880Y011480D03*
X006380Y011480D03*
X005880Y011480D03*
X005380Y011480D03*
X004880Y011480D03*
X004380Y011480D03*
X003880Y011480D03*
X003880Y015840D03*
X004380Y015840D03*
X004880Y015840D03*
X005380Y015840D03*
X005880Y015840D03*
X006380Y015840D03*
X006880Y015840D03*
X007380Y015840D03*
X007880Y015840D03*
X008380Y015840D03*
X008880Y015840D03*
X009380Y015840D03*
X009880Y015840D03*
X010380Y015840D03*
D19*
X003160Y005300D03*
X000600Y005300D03*
X000600Y003520D03*
X003160Y003520D03*
X035900Y003070D03*
X038460Y003070D03*
X038460Y004850D03*
X035900Y004850D03*
D20*
X035230Y004410D03*
X035230Y003360D03*
X020330Y003010D03*
X017780Y004360D03*
X020330Y005710D03*
X004680Y004010D03*
X003880Y003960D03*
X003880Y005160D03*
D21*
X021630Y005360D03*
X021630Y003460D03*
D22*
X020330Y003860D03*
X020330Y004860D03*
X018330Y004860D03*
X018330Y003860D03*
D23*
X017430Y003860D02*
X018830Y002460D01*
X021630Y002460D01*
X021630Y000910D01*
X020630Y000910D02*
X020630Y001660D01*
X019330Y001660D01*
X017930Y003060D01*
X014330Y003060D01*
X013730Y003660D01*
X013635Y003686D01*
X013430Y003460D02*
X013413Y003463D01*
X013430Y003460D02*
X014030Y002860D01*
X017830Y002860D01*
X017830Y002760D01*
X019630Y000960D01*
X019630Y000910D01*
X018630Y000910D02*
X018630Y000960D01*
X017630Y001960D01*
X017630Y002660D01*
X013730Y002660D01*
X013230Y003160D01*
X013190Y003241D01*
X012967Y003018D02*
X013030Y002960D01*
X013530Y002460D01*
X017430Y002460D01*
X017430Y001160D01*
X017630Y000960D01*
X017630Y000910D01*
X016630Y000910D02*
X016630Y002260D01*
X013330Y002260D01*
X012830Y002760D01*
X012745Y002795D01*
X012522Y002573D02*
X012530Y002560D01*
X013030Y002060D01*
X015630Y002060D01*
X015630Y000910D01*
X014630Y000910D02*
X014630Y001860D01*
X012930Y001860D01*
X012530Y002260D01*
X012330Y002260D01*
X012299Y002350D01*
X012077Y002127D02*
X012130Y002060D01*
X012530Y001660D01*
X013630Y001660D01*
X013630Y000910D01*
X012630Y000910D02*
X012630Y001160D01*
X011930Y001860D01*
X011854Y001905D01*
X011631Y001682D02*
X011630Y001660D01*
X011630Y000910D01*
X010630Y000910D02*
X010630Y001660D01*
X010629Y001682D01*
X010406Y001905D02*
X010330Y001860D01*
X009630Y001160D01*
X009630Y000910D01*
X008630Y000910D02*
X008630Y001660D01*
X009730Y001660D01*
X010130Y002060D01*
X010183Y002127D01*
X009930Y002260D02*
X009961Y002350D01*
X009930Y002260D02*
X009730Y002260D01*
X009330Y001860D01*
X007630Y001860D01*
X007630Y000910D01*
X006630Y000910D02*
X006630Y002060D01*
X009230Y002060D01*
X009730Y002560D01*
X009738Y002573D01*
X009515Y002795D02*
X009430Y002760D01*
X008930Y002260D01*
X006430Y002260D01*
X006430Y001760D01*
X005630Y000960D01*
X005630Y000910D01*
X004630Y000910D02*
X004630Y001660D01*
X005730Y001660D01*
X006230Y002160D01*
X006230Y002460D01*
X008730Y002460D01*
X009230Y002960D01*
X009293Y003018D01*
X009030Y003160D02*
X009070Y003241D01*
X009030Y003160D02*
X008530Y002660D01*
X006030Y002660D01*
X006030Y002260D01*
X005630Y001860D01*
X003630Y001860D01*
X003630Y000910D01*
X002630Y000910D02*
X002630Y002060D01*
X004130Y002060D01*
X004930Y002860D01*
X008230Y002860D01*
X008830Y003460D01*
X008847Y003463D01*
X008625Y003686D02*
X008530Y003660D01*
X007930Y003060D01*
X004430Y003060D01*
X003630Y002260D01*
X001630Y002260D01*
X001630Y000910D01*
X001130Y001460D02*
X000630Y000960D01*
X000630Y000910D01*
X008330Y003960D02*
X008402Y003909D01*
X008402Y004911D02*
X008330Y004960D01*
X004430Y004960D01*
X004430Y005460D01*
X003530Y006360D01*
X000630Y006360D01*
X000630Y007910D01*
X001630Y007910D02*
X001630Y007160D01*
X003030Y007160D01*
X004430Y005760D01*
X007930Y005760D01*
X008530Y005160D01*
X008625Y005134D01*
X008830Y005360D02*
X008847Y005357D01*
X008830Y005360D02*
X008230Y005960D01*
X004530Y005960D01*
X002630Y007860D01*
X002630Y007910D01*
X003630Y007910D02*
X003630Y007860D01*
X004630Y006860D01*
X004630Y006160D01*
X008530Y006160D01*
X009030Y005660D01*
X009070Y005579D01*
X009293Y005802D02*
X009230Y005860D01*
X008830Y006260D01*
X008730Y006260D01*
X008630Y006360D01*
X004830Y006360D01*
X004830Y007660D01*
X004630Y007860D01*
X004630Y007910D01*
X006630Y007910D02*
X006630Y006560D01*
X009430Y006560D01*
X009730Y006260D01*
X009738Y006247D01*
X009730Y006560D02*
X009330Y006960D01*
X007630Y006960D01*
X007630Y007910D01*
X008630Y007910D02*
X008630Y007160D01*
X009730Y007160D01*
X010130Y006760D01*
X010183Y006693D01*
X009930Y006560D02*
X009961Y006470D01*
X009930Y006560D02*
X009730Y006560D01*
X010330Y006960D02*
X010406Y006915D01*
X010330Y006960D02*
X009630Y007660D01*
X009630Y007910D01*
X010630Y007910D02*
X010630Y007160D01*
X010629Y007138D01*
X011630Y007160D02*
X011631Y007138D01*
X011630Y007160D02*
X011630Y007910D01*
X011930Y006960D02*
X012630Y007660D01*
X012630Y007910D01*
X013630Y007910D02*
X013630Y007160D01*
X012530Y007160D01*
X012130Y006760D01*
X012077Y006693D01*
X012330Y006560D02*
X012299Y006470D01*
X012330Y006560D02*
X012530Y006560D01*
X012930Y006960D01*
X014630Y006960D01*
X014630Y007910D01*
X015630Y007910D02*
X015630Y006760D01*
X013030Y006760D01*
X012530Y006260D01*
X012522Y006247D01*
X012745Y006025D02*
X012830Y006060D01*
X013330Y006560D01*
X015830Y006560D01*
X015830Y007060D01*
X016630Y007860D01*
X016630Y007910D01*
X017630Y007910D02*
X017630Y007160D01*
X016530Y007160D01*
X016030Y006660D01*
X016030Y006360D01*
X013530Y006360D01*
X013030Y005860D01*
X012967Y005802D01*
X013230Y005660D02*
X013190Y005579D01*
X013230Y005660D02*
X013730Y006160D01*
X016230Y006160D01*
X016230Y006560D01*
X016630Y006960D01*
X018630Y006960D01*
X018630Y007910D01*
X019130Y007360D02*
X019630Y007860D01*
X019630Y007910D01*
X020630Y007910D02*
X020630Y007860D01*
X019530Y006760D01*
X019530Y005760D01*
X014330Y005760D01*
X013730Y005160D01*
X013635Y005134D01*
X013430Y005360D02*
X013413Y005357D01*
X013430Y005360D02*
X014030Y005960D01*
X019130Y005960D01*
X019130Y007360D01*
X019730Y005960D02*
X021630Y007860D01*
X021630Y007910D01*
X023380Y006910D02*
X023430Y006860D01*
X023430Y004360D01*
X028930Y004360D01*
X028957Y004278D01*
X029176Y004497D02*
X029130Y004560D01*
X028230Y005460D01*
X024430Y005460D01*
X024430Y006860D01*
X024380Y006910D01*
X025380Y006910D02*
X025430Y006860D01*
X025430Y005660D01*
X028330Y005660D01*
X028830Y005160D01*
X028930Y005160D01*
X029330Y004760D01*
X029402Y004723D01*
X029530Y004960D02*
X029621Y004942D01*
X029530Y004960D02*
X029130Y005360D01*
X028930Y005360D01*
X028330Y005960D01*
X026430Y005960D01*
X026430Y006860D01*
X026380Y006910D01*
X027380Y006910D02*
X027430Y006860D01*
X027430Y006160D01*
X028430Y006160D01*
X028630Y005960D01*
X028930Y005960D01*
X029630Y005260D01*
X029830Y005260D01*
X029848Y005169D01*
X030067Y005388D02*
X030030Y005460D01*
X029330Y006160D01*
X028730Y006160D01*
X028730Y006560D01*
X028380Y006910D01*
X029380Y006910D02*
X029430Y006860D01*
X029430Y006460D01*
X030230Y005660D01*
X030293Y005614D01*
X030430Y005860D02*
X030512Y005833D01*
X030430Y005860D02*
X030430Y006860D01*
X030380Y006910D01*
X031330Y006860D02*
X031380Y006910D01*
X031330Y006860D02*
X031330Y005860D01*
X031248Y005833D01*
X031467Y005614D02*
X031530Y005660D01*
X032330Y006460D01*
X032330Y006860D01*
X032380Y006910D01*
X033330Y006860D02*
X033380Y006910D01*
X033330Y006860D02*
X033330Y006160D01*
X032430Y006160D01*
X031730Y005460D01*
X031693Y005388D01*
X031930Y005260D02*
X031912Y005169D01*
X031930Y005260D02*
X032130Y005260D01*
X032830Y005960D01*
X034330Y005960D01*
X034330Y006860D01*
X034380Y006910D01*
X035230Y006760D02*
X035380Y006910D01*
X035230Y006760D02*
X035230Y005760D01*
X033030Y005760D01*
X032230Y004960D01*
X032139Y004942D01*
X032358Y004723D02*
X032430Y004760D01*
X033230Y005560D01*
X035330Y005560D01*
X036330Y006560D01*
X036330Y006860D01*
X036380Y006910D01*
X037330Y006860D02*
X037380Y006910D01*
X037330Y006860D02*
X037330Y006160D01*
X036230Y006160D01*
X035430Y005360D01*
X033430Y005360D01*
X032630Y004560D01*
X032584Y004497D01*
X032830Y004360D02*
X032803Y004278D01*
X032830Y004360D02*
X034630Y004360D01*
X034630Y004660D01*
X035130Y005160D01*
X035530Y005160D01*
X036330Y005960D01*
X038330Y005960D01*
X038330Y006860D01*
X038380Y006910D01*
X038130Y008660D02*
X037330Y009460D01*
X037330Y010060D01*
X036480Y010910D01*
X036530Y011360D02*
X036480Y011410D01*
X036530Y011360D02*
X037130Y011360D01*
X037130Y010660D01*
X038130Y009660D01*
X038130Y010660D02*
X037330Y011460D01*
X037330Y011860D01*
X036530Y011860D01*
X036480Y011910D01*
X036530Y012360D02*
X036480Y012410D01*
X036530Y012360D02*
X037530Y012360D01*
X037530Y012260D01*
X038130Y011660D01*
X038130Y012660D02*
X038130Y012860D01*
X036530Y012860D01*
X036480Y012910D01*
X036480Y013410D02*
X036530Y013460D01*
X038130Y013460D01*
X038130Y013660D01*
X037530Y013960D02*
X037530Y014060D01*
X038130Y014660D01*
X037330Y014760D02*
X037330Y014460D01*
X036530Y014460D01*
X036480Y014410D01*
X036530Y013960D02*
X036480Y013910D01*
X036530Y013960D02*
X037530Y013960D01*
X037330Y014760D02*
X038130Y015560D01*
X038130Y015660D01*
X037230Y015760D02*
X038130Y016660D01*
X037330Y016860D02*
X037330Y016260D01*
X036480Y015410D01*
X037230Y015760D02*
X037230Y014960D01*
X036530Y014960D01*
X036480Y014910D01*
X037330Y016860D02*
X038130Y017660D01*
X032780Y015410D02*
X031930Y016260D01*
X031930Y016860D01*
X031130Y017660D01*
X029380Y017660D02*
X029330Y017660D01*
X028630Y016960D01*
X028630Y016660D01*
X027930Y015960D01*
X027900Y015910D01*
X027930Y015460D02*
X027900Y015410D01*
X027930Y015460D02*
X028630Y015460D01*
X028630Y015960D01*
X029330Y016660D01*
X029380Y016660D01*
X031130Y016660D02*
X032030Y015760D01*
X032030Y014960D01*
X032730Y014960D01*
X032780Y014910D01*
X032730Y014460D02*
X031930Y014460D01*
X031930Y014760D01*
X031130Y015560D01*
X031130Y015660D01*
X029380Y015660D02*
X029330Y015660D01*
X028730Y015060D01*
X028730Y014960D01*
X027930Y014960D01*
X027900Y014910D01*
X027930Y014460D02*
X027900Y014410D01*
X027930Y014460D02*
X029330Y014460D01*
X029330Y014660D01*
X029380Y014660D01*
X027930Y013860D02*
X027900Y013910D01*
X027930Y013860D02*
X029330Y013860D01*
X029330Y013660D01*
X029380Y013660D01*
X028730Y013360D02*
X028730Y013260D01*
X029330Y012660D01*
X029380Y012660D01*
X028630Y012860D02*
X028630Y012360D01*
X029330Y011660D01*
X029380Y011660D01*
X028630Y011660D02*
X028630Y011360D01*
X029330Y010660D01*
X029380Y010660D01*
X031130Y010660D02*
X031130Y010760D01*
X031930Y011560D01*
X031930Y011860D01*
X032730Y011860D01*
X032780Y011910D01*
X032730Y012360D02*
X031730Y012360D01*
X031730Y012260D01*
X031130Y011660D01*
X032030Y011360D02*
X032030Y010560D01*
X031130Y009660D01*
X031930Y009460D02*
X031930Y010060D01*
X032780Y010910D01*
X032730Y011360D02*
X032030Y011360D01*
X032730Y011360D02*
X032780Y011410D01*
X032730Y012360D02*
X032780Y012410D01*
X032730Y012860D02*
X032780Y012910D01*
X032730Y012860D02*
X031130Y012860D01*
X031130Y012660D01*
X031130Y013460D02*
X031130Y013660D01*
X031130Y013460D02*
X032730Y013460D01*
X032780Y013410D01*
X032780Y013910D02*
X032730Y013960D01*
X031730Y013960D01*
X031730Y014060D01*
X031130Y014660D01*
X032730Y014460D02*
X032780Y014410D01*
X028730Y013360D02*
X027930Y013360D01*
X027900Y013410D01*
X027900Y012910D02*
X027930Y012860D01*
X028630Y012860D01*
X027900Y012410D02*
X027930Y012360D01*
X028630Y011660D01*
X025860Y012410D02*
X025830Y012360D01*
X025130Y011660D01*
X025130Y011360D01*
X024430Y010660D01*
X024380Y010660D01*
X024380Y011660D02*
X024430Y011660D01*
X025130Y012360D01*
X025130Y012860D01*
X025830Y012860D01*
X025860Y012910D01*
X025030Y013260D02*
X024430Y012660D01*
X024380Y012660D01*
X025030Y013260D02*
X025030Y013360D01*
X025830Y013360D01*
X025860Y013410D01*
X025830Y013860D02*
X025860Y013910D01*
X025830Y013860D02*
X024430Y013860D01*
X024430Y013660D01*
X024380Y013660D01*
X025830Y014460D02*
X025860Y014410D01*
X025830Y014460D02*
X024430Y014460D01*
X024430Y014660D01*
X024380Y014660D01*
X025030Y014960D02*
X025030Y015060D01*
X024430Y015660D01*
X024380Y015660D01*
X025130Y015460D02*
X025130Y015960D01*
X024430Y016660D01*
X024380Y016660D01*
X025130Y016660D02*
X025130Y016960D01*
X024430Y017660D01*
X024380Y017660D01*
X025130Y016660D02*
X025830Y015960D01*
X025860Y015910D01*
X025830Y015460D02*
X025130Y015460D01*
X025830Y015460D02*
X025860Y015410D01*
X025830Y014960D02*
X025030Y014960D01*
X025830Y014960D02*
X025860Y014910D01*
X021630Y014960D02*
X021630Y014660D01*
X021630Y014960D02*
X021030Y015560D01*
X021000Y015650D01*
X020630Y015650D02*
X020630Y014660D01*
X020230Y015560D02*
X019630Y014960D01*
X019630Y014660D01*
X020230Y015560D02*
X020260Y015650D01*
X020260Y016670D02*
X020230Y016760D01*
X019630Y017360D01*
X019630Y017660D01*
X020630Y017660D02*
X020630Y016670D01*
X021000Y016670D02*
X021030Y016760D01*
X021630Y017360D01*
X021630Y017660D01*
X013630Y017660D02*
X013630Y015860D01*
X010430Y015860D01*
X010380Y015840D01*
X010130Y016060D02*
X010130Y016260D01*
X010530Y016660D01*
X012630Y016660D01*
X012630Y017660D01*
X011630Y017660D02*
X011630Y016860D01*
X010230Y016860D01*
X009630Y016260D01*
X009630Y016060D01*
X009430Y015860D01*
X009380Y015840D01*
X009130Y016060D02*
X009130Y016260D01*
X010530Y017660D01*
X010630Y017660D01*
X009630Y017660D02*
X008630Y016660D01*
X008630Y016060D01*
X008430Y015860D01*
X008380Y015840D01*
X008130Y016060D02*
X008130Y017160D01*
X008630Y017660D01*
X007630Y017660D02*
X007630Y016060D01*
X007430Y015860D01*
X007380Y015840D01*
X006880Y015840D02*
X006830Y015860D01*
X006630Y016060D01*
X006630Y017660D01*
X006330Y016960D02*
X005630Y017660D01*
X004630Y017660D02*
X004630Y017460D01*
X005630Y016460D01*
X005630Y016060D01*
X005830Y015860D01*
X005880Y015840D01*
X006330Y015860D02*
X006380Y015840D01*
X006330Y015860D02*
X006330Y016960D01*
X005130Y016260D02*
X003730Y017660D01*
X003630Y017660D01*
X002630Y017660D02*
X002630Y016860D01*
X004030Y016860D01*
X004630Y016260D01*
X004630Y016060D01*
X004830Y015860D01*
X004880Y015840D01*
X005130Y016060D02*
X005130Y016260D01*
X005130Y016060D02*
X005330Y015860D01*
X005380Y015840D01*
X003880Y015840D02*
X003830Y015860D01*
X000630Y015860D01*
X000630Y017660D01*
X007880Y015840D02*
X007930Y015860D01*
X008130Y016060D01*
X008880Y015840D02*
X008930Y015860D01*
X009130Y016060D01*
X009880Y015840D02*
X009930Y015860D01*
X010130Y016060D01*
X010380Y011480D02*
X010430Y011460D01*
X013630Y011460D01*
X013630Y009660D01*
X011630Y009660D02*
X011630Y010460D01*
X010230Y010460D01*
X009630Y011060D01*
X009630Y011260D01*
X009430Y011460D01*
X009380Y011480D01*
X009130Y011260D02*
X009130Y011060D01*
X010530Y009660D01*
X010630Y009660D01*
X009630Y009660D02*
X008630Y010660D01*
X008630Y011260D01*
X008430Y011460D01*
X008380Y011480D01*
X008130Y011260D02*
X008130Y010160D01*
X008630Y009660D01*
X007630Y009660D02*
X007630Y011260D01*
X007430Y011460D01*
X007380Y011480D01*
X006880Y011480D02*
X006830Y011460D01*
X006630Y011260D01*
X006630Y009660D01*
X006130Y010160D02*
X005630Y009660D01*
X006130Y010160D02*
X006130Y011260D01*
X006330Y011460D01*
X006380Y011480D01*
X005880Y011480D02*
X005830Y011460D01*
X005630Y011260D01*
X005630Y010660D01*
X004630Y009660D01*
X003730Y009660D02*
X003630Y009660D01*
X003730Y009660D02*
X005130Y011060D01*
X005130Y011260D01*
X005330Y011460D01*
X005380Y011480D01*
X004880Y011480D02*
X004830Y011460D01*
X004630Y011260D01*
X004630Y011060D01*
X004030Y010460D01*
X002630Y010460D01*
X002630Y009660D01*
X001630Y009660D02*
X001630Y010660D01*
X003730Y010660D01*
X004130Y011060D01*
X004130Y011260D01*
X004330Y011460D01*
X004380Y011480D01*
X003880Y011480D02*
X003830Y011460D01*
X000630Y011460D01*
X000630Y009660D01*
X007880Y011480D02*
X007930Y011460D01*
X008130Y011260D01*
X008880Y011480D02*
X008930Y011460D01*
X009130Y011260D01*
X011854Y006915D02*
X011930Y006960D01*
X013858Y004911D02*
X013930Y004960D01*
X017830Y004960D01*
X017830Y005060D01*
X018330Y005560D01*
X019730Y005560D01*
X019730Y005960D01*
X017430Y003860D02*
X013930Y003860D01*
X013858Y003909D01*
X023430Y003460D02*
X023430Y000960D01*
X023380Y000910D01*
X024380Y000910D02*
X024430Y000960D01*
X024430Y002460D01*
X028330Y002460D01*
X029130Y003260D01*
X029176Y003323D01*
X028930Y003460D02*
X028957Y003542D01*
X028930Y003460D02*
X023430Y003460D01*
X025430Y002260D02*
X025430Y000960D01*
X025380Y000910D01*
X026380Y000910D02*
X026430Y000960D01*
X026430Y002060D01*
X028730Y002060D01*
X029530Y002860D01*
X029621Y002878D01*
X029402Y003097D02*
X029330Y003060D01*
X028530Y002260D01*
X025430Y002260D01*
X027430Y001860D02*
X027430Y000960D01*
X027380Y000910D01*
X028380Y000910D02*
X028430Y000960D01*
X028430Y001660D01*
X029330Y001660D01*
X030030Y002360D01*
X030067Y002432D01*
X029830Y002560D02*
X029630Y002560D01*
X028930Y001860D01*
X027430Y001860D01*
X029430Y001360D02*
X029430Y000960D01*
X029380Y000910D01*
X030380Y000910D02*
X030430Y000960D01*
X030430Y001960D01*
X030512Y001987D01*
X030293Y002206D02*
X030230Y002160D01*
X029430Y001360D01*
X031248Y001987D02*
X031330Y001960D01*
X031330Y000960D01*
X031380Y000910D01*
X032330Y000960D02*
X032380Y000910D01*
X032330Y000960D02*
X032330Y001360D01*
X031530Y002160D01*
X031467Y002206D01*
X031730Y002360D02*
X031693Y002432D01*
X031730Y002360D02*
X032430Y001660D01*
X033330Y001660D01*
X033330Y000960D01*
X033380Y000910D01*
X034130Y001160D02*
X034380Y000910D01*
X034130Y001160D02*
X034130Y001860D01*
X032830Y001860D01*
X032130Y002560D01*
X031930Y002560D01*
X031912Y002651D01*
X032139Y002878D02*
X032230Y002860D01*
X032630Y002460D01*
X034330Y002460D01*
X034330Y001960D01*
X035380Y000910D01*
X036330Y000960D02*
X036380Y000910D01*
X036330Y000960D02*
X036330Y002160D01*
X034930Y002160D01*
X034430Y002660D01*
X032830Y002660D01*
X032430Y003060D01*
X032358Y003097D01*
X032630Y003260D02*
X032584Y003323D01*
X032630Y003260D02*
X033030Y002860D01*
X034630Y002860D01*
X035130Y002360D01*
X037330Y002360D01*
X037330Y000960D01*
X037380Y000910D01*
X038330Y000960D02*
X038380Y000910D01*
X038330Y000960D02*
X038330Y002560D01*
X035230Y002560D01*
X034630Y003160D01*
X034630Y003460D01*
X032830Y003460D01*
X032803Y003542D01*
X029848Y002651D02*
X029830Y002560D01*
X031130Y008660D02*
X031930Y009460D01*
D24*
X012680Y009710D02*
X012630Y009660D01*
X012680Y009710D02*
X012680Y010060D01*
X011930Y010810D01*
X011830Y010810D01*
X011730Y010910D01*
X010180Y010910D01*
X009880Y011210D01*
X009880Y011480D01*
X004380Y015840D02*
X004380Y016110D01*
X004030Y016460D01*
X002280Y016460D01*
X002180Y016560D01*
X002080Y016560D01*
X001780Y016860D01*
X001780Y016910D01*
X001580Y017110D01*
X001580Y017610D01*
X001630Y017660D01*
X008330Y003960D02*
X008330Y003810D01*
X007930Y003410D01*
X005630Y003410D01*
X005580Y003360D01*
X005530Y003360D01*
X005480Y003310D01*
X004280Y003310D01*
X004180Y003210D01*
X004130Y003210D01*
X003480Y002560D01*
X001530Y002560D01*
X001180Y002210D01*
X001180Y001510D01*
X001130Y001460D01*
D25*
X003160Y003520D02*
X003740Y003520D01*
X003880Y003960D01*
X004680Y004010D01*
X003880Y005160D02*
X003740Y005300D01*
X003160Y005300D01*
X015630Y009660D02*
X015680Y009710D01*
X015680Y010060D01*
X016260Y010640D01*
X016260Y010650D01*
X016630Y010650D02*
X016630Y009660D01*
X017630Y009660D02*
X017630Y009960D01*
X017000Y010590D01*
X017000Y010650D01*
X017000Y011670D02*
X017000Y011730D01*
X017530Y012260D01*
X017530Y012560D01*
X017630Y012660D01*
X016630Y012660D02*
X016630Y011670D01*
X016260Y011670D02*
X016220Y011670D01*
X015680Y012210D01*
X015680Y012610D01*
X015630Y012660D01*
X015630Y014660D02*
X015630Y015110D01*
X016170Y015650D01*
X016260Y015650D01*
X016630Y015650D02*
X016630Y014660D01*
X017630Y014660D02*
X017680Y014710D01*
X017680Y015010D01*
X017040Y015650D01*
X017000Y015650D01*
X017000Y016670D02*
X017000Y016780D01*
X017330Y017110D01*
X017380Y017110D01*
X017680Y017410D01*
X017680Y017610D01*
X017630Y017660D01*
X016630Y017660D02*
X016630Y016670D01*
X016260Y016670D02*
X016170Y016670D01*
X015630Y017210D01*
X015630Y017660D01*
X019630Y012660D02*
X019680Y012610D01*
X019680Y012310D01*
X020260Y011730D01*
X020260Y011670D01*
X020630Y011670D02*
X020630Y012660D01*
X021580Y012610D02*
X021580Y012310D01*
X021000Y011730D01*
X021000Y011670D01*
X021580Y012610D02*
X021630Y012660D01*
X021090Y010650D02*
X021680Y010060D01*
X021680Y009710D01*
X021630Y009660D01*
X020630Y009660D02*
X020630Y010650D01*
X020260Y010650D02*
X020260Y010590D01*
X019680Y010010D01*
X019680Y009710D01*
X019630Y009660D01*
X021000Y010650D02*
X021090Y010650D01*
X020330Y005710D02*
X020330Y004860D01*
X021180Y004910D01*
X021630Y005360D01*
X021180Y003910D02*
X020330Y003860D01*
X020330Y003010D01*
X021180Y003910D02*
X021630Y003460D01*
X018330Y003860D02*
X018080Y003860D01*
X017780Y004360D01*
X017930Y004710D01*
X018180Y004710D01*
X018230Y004710D01*
X018330Y004610D01*
X018180Y004710D02*
X018330Y004860D01*
X035230Y004410D02*
X035510Y004460D01*
X035900Y004850D01*
X035230Y003360D02*
X035760Y003210D01*
X035900Y003070D01*
M02*
