G75*
%MOIN*%
%OFA0B0*%
%FSLAX24Y24*%
%IPPOS*%
%LPD*%
%AMOC8*
5,1,8,0,0,1.08239X$1,22.5*
%
%ADD10C,0.0000*%
%ADD11R,0.0631X0.0237*%
%ADD12R,0.0237X0.0631*%
%ADD13R,0.0820X0.0260*%
%ADD14R,0.0240X0.0620*%
%ADD15R,0.0710X0.0220*%
%ADD16R,0.0260X0.0540*%
%ADD17C,0.0640*%
%ADD18R,0.0260X0.0740*%
%ADD19C,0.0780*%
%ADD20OC8,0.0890*%
%ADD21C,0.0700*%
%ADD22OC8,0.0700*%
D10*
X000130Y000160D02*
X000130Y018656D01*
X039000Y018656D01*
X039000Y000160D01*
X000130Y000160D01*
D11*
G36*
X008708Y004048D02*
X008263Y003603D01*
X008096Y003770D01*
X008541Y004215D01*
X008708Y004048D01*
G37*
G36*
X008931Y003825D02*
X008486Y003380D01*
X008319Y003547D01*
X008764Y003992D01*
X008931Y003825D01*
G37*
G36*
X009153Y003602D02*
X008708Y003157D01*
X008541Y003324D01*
X008986Y003769D01*
X009153Y003602D01*
G37*
G36*
X009376Y003380D02*
X008931Y002935D01*
X008764Y003102D01*
X009209Y003547D01*
X009376Y003380D01*
G37*
G36*
X009599Y003157D02*
X009154Y002712D01*
X008987Y002879D01*
X009432Y003324D01*
X009599Y003157D01*
G37*
G36*
X009821Y002934D02*
X009376Y002489D01*
X009209Y002656D01*
X009654Y003101D01*
X009821Y002934D01*
G37*
G36*
X010044Y002712D02*
X009599Y002267D01*
X009432Y002434D01*
X009877Y002879D01*
X010044Y002712D01*
G37*
G36*
X010267Y002489D02*
X009822Y002044D01*
X009655Y002211D01*
X010100Y002656D01*
X010267Y002489D01*
G37*
G36*
X010489Y002266D02*
X010044Y001821D01*
X009877Y001988D01*
X010322Y002433D01*
X010489Y002266D01*
G37*
G36*
X010712Y002044D02*
X010267Y001599D01*
X010100Y001766D01*
X010545Y002211D01*
X010712Y002044D01*
G37*
G36*
X010935Y001821D02*
X010490Y001376D01*
X010323Y001543D01*
X010768Y001988D01*
X010935Y001821D01*
G37*
G36*
X014164Y005050D02*
X013719Y004605D01*
X013552Y004772D01*
X013997Y005217D01*
X014164Y005050D01*
G37*
G36*
X013941Y005273D02*
X013496Y004828D01*
X013329Y004995D01*
X013774Y005440D01*
X013941Y005273D01*
G37*
G36*
X013719Y005496D02*
X013274Y005051D01*
X013107Y005218D01*
X013552Y005663D01*
X013719Y005496D01*
G37*
G36*
X013496Y005718D02*
X013051Y005273D01*
X012884Y005440D01*
X013329Y005885D01*
X013496Y005718D01*
G37*
G36*
X013273Y005941D02*
X012828Y005496D01*
X012661Y005663D01*
X013106Y006108D01*
X013273Y005941D01*
G37*
G36*
X013051Y006164D02*
X012606Y005719D01*
X012439Y005886D01*
X012884Y006331D01*
X013051Y006164D01*
G37*
G36*
X012828Y006386D02*
X012383Y005941D01*
X012216Y006108D01*
X012661Y006553D01*
X012828Y006386D01*
G37*
G36*
X012605Y006609D02*
X012160Y006164D01*
X011993Y006331D01*
X012438Y006776D01*
X012605Y006609D01*
G37*
G36*
X012383Y006832D02*
X011938Y006387D01*
X011771Y006554D01*
X012216Y006999D01*
X012383Y006832D01*
G37*
G36*
X012160Y007054D02*
X011715Y006609D01*
X011548Y006776D01*
X011993Y007221D01*
X012160Y007054D01*
G37*
G36*
X011937Y007277D02*
X011492Y006832D01*
X011325Y006999D01*
X011770Y007444D01*
X011937Y007277D01*
G37*
D12*
G36*
X010935Y006999D02*
X010768Y006832D01*
X010323Y007277D01*
X010490Y007444D01*
X010935Y006999D01*
G37*
G36*
X010712Y006776D02*
X010545Y006609D01*
X010100Y007054D01*
X010267Y007221D01*
X010712Y006776D01*
G37*
G36*
X010489Y006554D02*
X010322Y006387D01*
X009877Y006832D01*
X010044Y006999D01*
X010489Y006554D01*
G37*
G36*
X010267Y006331D02*
X010100Y006164D01*
X009655Y006609D01*
X009822Y006776D01*
X010267Y006331D01*
G37*
G36*
X010044Y006108D02*
X009877Y005941D01*
X009432Y006386D01*
X009599Y006553D01*
X010044Y006108D01*
G37*
G36*
X009821Y005886D02*
X009654Y005719D01*
X009209Y006164D01*
X009376Y006331D01*
X009821Y005886D01*
G37*
G36*
X009599Y005663D02*
X009432Y005496D01*
X008987Y005941D01*
X009154Y006108D01*
X009599Y005663D01*
G37*
G36*
X009376Y005440D02*
X009209Y005273D01*
X008764Y005718D01*
X008931Y005885D01*
X009376Y005440D01*
G37*
G36*
X009153Y005218D02*
X008986Y005051D01*
X008541Y005496D01*
X008708Y005663D01*
X009153Y005218D01*
G37*
G36*
X008931Y004995D02*
X008764Y004828D01*
X008319Y005273D01*
X008486Y005440D01*
X008931Y004995D01*
G37*
G36*
X008708Y004772D02*
X008541Y004605D01*
X008096Y005050D01*
X008263Y005217D01*
X008708Y004772D01*
G37*
G36*
X013051Y002656D02*
X012884Y002489D01*
X012439Y002934D01*
X012606Y003101D01*
X013051Y002656D01*
G37*
G36*
X012828Y002434D02*
X012661Y002267D01*
X012216Y002712D01*
X012383Y002879D01*
X012828Y002434D01*
G37*
G36*
X012605Y002211D02*
X012438Y002044D01*
X011993Y002489D01*
X012160Y002656D01*
X012605Y002211D01*
G37*
G36*
X012383Y001988D02*
X012216Y001821D01*
X011771Y002266D01*
X011938Y002433D01*
X012383Y001988D01*
G37*
G36*
X012160Y001766D02*
X011993Y001599D01*
X011548Y002044D01*
X011715Y002211D01*
X012160Y001766D01*
G37*
G36*
X011937Y001543D02*
X011770Y001376D01*
X011325Y001821D01*
X011492Y001988D01*
X011937Y001543D01*
G37*
G36*
X013273Y002879D02*
X013106Y002712D01*
X012661Y003157D01*
X012828Y003324D01*
X013273Y002879D01*
G37*
G36*
X013496Y003102D02*
X013329Y002935D01*
X012884Y003380D01*
X013051Y003547D01*
X013496Y003102D01*
G37*
G36*
X013719Y003324D02*
X013552Y003157D01*
X013107Y003602D01*
X013274Y003769D01*
X013719Y003324D01*
G37*
G36*
X013941Y003547D02*
X013774Y003380D01*
X013329Y003825D01*
X013496Y003992D01*
X013941Y003547D01*
G37*
G36*
X014164Y003770D02*
X013997Y003603D01*
X013552Y004048D01*
X013719Y004215D01*
X014164Y003770D01*
G37*
D13*
X032780Y010910D03*
X032780Y011410D03*
X032780Y011910D03*
X032780Y012410D03*
X032780Y012910D03*
X032780Y013410D03*
X032780Y013910D03*
X032780Y014410D03*
X032780Y014910D03*
X032780Y015410D03*
X036480Y015410D03*
X036480Y014910D03*
X036480Y014410D03*
X036480Y013910D03*
X036480Y013410D03*
X036480Y012910D03*
X036480Y012410D03*
X036480Y011910D03*
X036480Y011410D03*
X036480Y010910D03*
D14*
G36*
X031114Y005529D02*
X030944Y005699D01*
X031382Y006137D01*
X031552Y005967D01*
X031114Y005529D01*
G37*
G36*
X031333Y005310D02*
X031163Y005480D01*
X031601Y005918D01*
X031771Y005748D01*
X031333Y005310D01*
G37*
G36*
X031559Y005084D02*
X031389Y005254D01*
X031827Y005692D01*
X031997Y005522D01*
X031559Y005084D01*
G37*
G36*
X031778Y004865D02*
X031608Y005035D01*
X032046Y005473D01*
X032216Y005303D01*
X031778Y004865D01*
G37*
G36*
X032005Y004638D02*
X031835Y004808D01*
X032273Y005246D01*
X032443Y005076D01*
X032005Y004638D01*
G37*
G36*
X032224Y004419D02*
X032054Y004589D01*
X032492Y005027D01*
X032662Y004857D01*
X032224Y004419D01*
G37*
G36*
X032450Y004193D02*
X032280Y004363D01*
X032718Y004801D01*
X032888Y004631D01*
X032450Y004193D01*
G37*
G36*
X032669Y003974D02*
X032499Y004144D01*
X032937Y004582D01*
X033107Y004412D01*
X032669Y003974D01*
G37*
G36*
X032499Y003676D02*
X032669Y003846D01*
X033107Y003408D01*
X032937Y003238D01*
X032499Y003676D01*
G37*
G36*
X032280Y003457D02*
X032450Y003627D01*
X032888Y003189D01*
X032718Y003019D01*
X032280Y003457D01*
G37*
G36*
X032054Y003231D02*
X032224Y003401D01*
X032662Y002963D01*
X032492Y002793D01*
X032054Y003231D01*
G37*
G36*
X031835Y003012D02*
X032005Y003182D01*
X032443Y002744D01*
X032273Y002574D01*
X031835Y003012D01*
G37*
G36*
X031608Y002785D02*
X031778Y002955D01*
X032216Y002517D01*
X032046Y002347D01*
X031608Y002785D01*
G37*
G36*
X031389Y002566D02*
X031559Y002736D01*
X031997Y002298D01*
X031827Y002128D01*
X031389Y002566D01*
G37*
G36*
X031163Y002340D02*
X031333Y002510D01*
X031771Y002072D01*
X031601Y001902D01*
X031163Y002340D01*
G37*
G36*
X030944Y002121D02*
X031114Y002291D01*
X031552Y001853D01*
X031382Y001683D01*
X030944Y002121D01*
G37*
G36*
X030378Y001683D02*
X030208Y001853D01*
X030646Y002291D01*
X030816Y002121D01*
X030378Y001683D01*
G37*
G36*
X030159Y001902D02*
X029989Y002072D01*
X030427Y002510D01*
X030597Y002340D01*
X030159Y001902D01*
G37*
G36*
X029933Y002128D02*
X029763Y002298D01*
X030201Y002736D01*
X030371Y002566D01*
X029933Y002128D01*
G37*
G36*
X029714Y002347D02*
X029544Y002517D01*
X029982Y002955D01*
X030152Y002785D01*
X029714Y002347D01*
G37*
G36*
X029487Y002574D02*
X029317Y002744D01*
X029755Y003182D01*
X029925Y003012D01*
X029487Y002574D01*
G37*
G36*
X029268Y002793D02*
X029098Y002963D01*
X029536Y003401D01*
X029706Y003231D01*
X029268Y002793D01*
G37*
G36*
X029042Y003019D02*
X028872Y003189D01*
X029310Y003627D01*
X029480Y003457D01*
X029042Y003019D01*
G37*
G36*
X028823Y003238D02*
X028653Y003408D01*
X029091Y003846D01*
X029261Y003676D01*
X028823Y003238D01*
G37*
G36*
X028653Y004412D02*
X028823Y004582D01*
X029261Y004144D01*
X029091Y003974D01*
X028653Y004412D01*
G37*
G36*
X028872Y004631D02*
X029042Y004801D01*
X029480Y004363D01*
X029310Y004193D01*
X028872Y004631D01*
G37*
G36*
X029098Y004857D02*
X029268Y005027D01*
X029706Y004589D01*
X029536Y004419D01*
X029098Y004857D01*
G37*
G36*
X029317Y005076D02*
X029487Y005246D01*
X029925Y004808D01*
X029755Y004638D01*
X029317Y005076D01*
G37*
G36*
X029544Y005303D02*
X029714Y005473D01*
X030152Y005035D01*
X029982Y004865D01*
X029544Y005303D01*
G37*
G36*
X029763Y005522D02*
X029933Y005692D01*
X030371Y005254D01*
X030201Y005084D01*
X029763Y005522D01*
G37*
G36*
X029989Y005748D02*
X030159Y005918D01*
X030597Y005480D01*
X030427Y005310D01*
X029989Y005748D01*
G37*
G36*
X030208Y005967D02*
X030378Y006137D01*
X030816Y005699D01*
X030646Y005529D01*
X030208Y005967D01*
G37*
D15*
X027900Y012410D03*
X027900Y012910D03*
X027900Y013410D03*
X027900Y013910D03*
X027900Y014410D03*
X027900Y014910D03*
X027900Y015410D03*
X027900Y015910D03*
X025860Y015910D03*
X025860Y015410D03*
X025860Y014910D03*
X025860Y014410D03*
X025860Y013910D03*
X025860Y013410D03*
X025860Y012910D03*
X025860Y012410D03*
D16*
X021000Y011670D03*
X020630Y011670D03*
X020260Y011670D03*
X020260Y010650D03*
X020630Y010650D03*
X021000Y010650D03*
X017000Y010650D03*
X016630Y010650D03*
X016260Y010650D03*
X016260Y011670D03*
X016630Y011670D03*
X017000Y011670D03*
X017000Y015650D03*
X016630Y015650D03*
X016260Y015650D03*
X016260Y016670D03*
X016630Y016670D03*
X017000Y016670D03*
X020260Y016670D03*
X020630Y016670D03*
X021000Y016670D03*
X021000Y015650D03*
X020630Y015650D03*
X020260Y015650D03*
D17*
X020630Y014960D02*
X020630Y014360D01*
X019630Y014360D02*
X019630Y014960D01*
X017630Y014960D02*
X017630Y014360D01*
X016630Y014360D02*
X016630Y014960D01*
X015630Y014960D02*
X015630Y014360D01*
X015630Y012960D02*
X015630Y012360D01*
X016630Y012360D02*
X016630Y012960D01*
X017630Y012960D02*
X017630Y012360D01*
X019630Y012360D02*
X019630Y012960D01*
X020630Y012960D02*
X020630Y012360D01*
X021630Y012360D02*
X021630Y012960D01*
X024080Y012660D02*
X024680Y012660D01*
X024680Y011660D02*
X024080Y011660D01*
X024080Y010660D02*
X024680Y010660D01*
X021630Y009960D02*
X021630Y009360D01*
X020630Y009360D02*
X020630Y009960D01*
X019630Y009960D02*
X019630Y009360D01*
X017630Y009360D02*
X017630Y009960D01*
X016630Y009960D02*
X016630Y009360D01*
X015630Y009360D02*
X015630Y009960D01*
X013630Y009960D02*
X013630Y009360D01*
X012630Y009360D02*
X012630Y009960D01*
X011630Y009960D02*
X011630Y009360D01*
X010630Y009360D02*
X010630Y009960D01*
X009630Y009960D02*
X009630Y009360D01*
X008630Y009360D02*
X008630Y009960D01*
X007630Y009960D02*
X007630Y009360D01*
X006630Y009360D02*
X006630Y009960D01*
X005630Y009960D02*
X005630Y009360D01*
X004630Y009360D02*
X004630Y009960D01*
X003630Y009960D02*
X003630Y009360D01*
X002630Y009360D02*
X002630Y009960D01*
X001630Y009960D02*
X001630Y009360D01*
X000630Y009360D02*
X000630Y009960D01*
X000630Y008210D02*
X000630Y007610D01*
X001630Y007610D02*
X001630Y008210D01*
X002630Y008210D02*
X002630Y007610D01*
X003630Y007610D02*
X003630Y008210D01*
X004630Y008210D02*
X004630Y007610D01*
X005630Y007610D02*
X005630Y008210D01*
X006630Y008210D02*
X006630Y007610D01*
X007630Y007610D02*
X007630Y008210D01*
X008630Y008210D02*
X008630Y007610D01*
X009630Y007610D02*
X009630Y008210D01*
X010630Y008210D02*
X010630Y007610D01*
X011630Y007610D02*
X011630Y008210D01*
X012630Y008210D02*
X012630Y007610D01*
X013630Y007610D02*
X013630Y008210D01*
X014630Y008210D02*
X014630Y007610D01*
X015630Y007610D02*
X015630Y008210D01*
X016630Y008210D02*
X016630Y007610D01*
X017630Y007610D02*
X017630Y008210D01*
X018630Y008210D02*
X018630Y007610D01*
X019630Y007610D02*
X019630Y008210D01*
X020630Y008210D02*
X020630Y007610D01*
X021630Y007610D02*
X021630Y008210D01*
X023380Y007210D02*
X023380Y006610D01*
X024380Y006610D02*
X024380Y007210D01*
X025380Y007210D02*
X025380Y006610D01*
X026380Y006610D02*
X026380Y007210D01*
X027380Y007210D02*
X027380Y006610D01*
X028380Y006610D02*
X028380Y007210D01*
X029380Y007210D02*
X029380Y006610D01*
X030380Y006610D02*
X030380Y007210D01*
X031380Y007210D02*
X031380Y006610D01*
X032380Y006610D02*
X032380Y007210D01*
X033380Y007210D02*
X033380Y006610D01*
X034380Y006610D02*
X034380Y007210D01*
X035380Y007210D02*
X035380Y006610D01*
X036380Y006610D02*
X036380Y007210D01*
X037380Y007210D02*
X037380Y006610D01*
X038380Y006610D02*
X038380Y007210D01*
X038430Y008660D02*
X037830Y008660D01*
X037830Y009660D02*
X038430Y009660D01*
X038430Y010660D02*
X037830Y010660D01*
X037830Y011660D02*
X038430Y011660D01*
X038430Y012660D02*
X037830Y012660D01*
X037830Y013660D02*
X038430Y013660D01*
X038430Y014660D02*
X037830Y014660D01*
X037830Y015660D02*
X038430Y015660D01*
X038430Y016660D02*
X037830Y016660D01*
X037830Y017660D02*
X038430Y017660D01*
X031430Y017660D02*
X030830Y017660D01*
X029680Y017660D02*
X029080Y017660D01*
X029080Y016660D02*
X029680Y016660D01*
X030830Y016660D02*
X031430Y016660D01*
X031430Y015660D02*
X030830Y015660D01*
X029680Y015660D02*
X029080Y015660D01*
X029080Y014660D02*
X029680Y014660D01*
X030830Y014660D02*
X031430Y014660D01*
X031430Y013660D02*
X030830Y013660D01*
X029680Y013660D02*
X029080Y013660D01*
X029080Y012660D02*
X029680Y012660D01*
X030830Y012660D02*
X031430Y012660D01*
X031430Y011660D02*
X030830Y011660D01*
X029680Y011660D02*
X029080Y011660D01*
X029080Y010660D02*
X029680Y010660D01*
X030830Y010660D02*
X031430Y010660D01*
X031430Y009660D02*
X030830Y009660D01*
X030830Y008660D02*
X031430Y008660D01*
X024680Y013660D02*
X024080Y013660D01*
X024080Y014660D02*
X024680Y014660D01*
X024680Y015660D02*
X024080Y015660D01*
X024080Y016660D02*
X024680Y016660D01*
X024680Y017660D02*
X024080Y017660D01*
X021630Y017960D02*
X021630Y017360D01*
X020630Y017360D02*
X020630Y017960D01*
X019630Y017960D02*
X019630Y017360D01*
X017630Y017360D02*
X017630Y017960D01*
X016630Y017960D02*
X016630Y017360D01*
X015630Y017360D02*
X015630Y017960D01*
X013630Y017960D02*
X013630Y017360D01*
X012630Y017360D02*
X012630Y017960D01*
X011630Y017960D02*
X011630Y017360D01*
X010630Y017360D02*
X010630Y017960D01*
X009630Y017960D02*
X009630Y017360D01*
X008630Y017360D02*
X008630Y017960D01*
X007630Y017960D02*
X007630Y017360D01*
X006630Y017360D02*
X006630Y017960D01*
X005630Y017960D02*
X005630Y017360D01*
X004630Y017360D02*
X004630Y017960D01*
X003630Y017960D02*
X003630Y017360D01*
X002630Y017360D02*
X002630Y017960D01*
X001630Y017960D02*
X001630Y017360D01*
X000630Y017360D02*
X000630Y017960D01*
X021630Y014960D02*
X021630Y014360D01*
X021630Y001210D02*
X021630Y000610D01*
X020630Y000610D02*
X020630Y001210D01*
X019630Y001210D02*
X019630Y000610D01*
X018630Y000610D02*
X018630Y001210D01*
X017630Y001210D02*
X017630Y000610D01*
X016630Y000610D02*
X016630Y001210D01*
X015630Y001210D02*
X015630Y000610D01*
X014630Y000610D02*
X014630Y001210D01*
X013630Y001210D02*
X013630Y000610D01*
X012630Y000610D02*
X012630Y001210D01*
X011630Y001210D02*
X011630Y000610D01*
X010630Y000610D02*
X010630Y001210D01*
X009630Y001210D02*
X009630Y000610D01*
X008630Y000610D02*
X008630Y001210D01*
X007630Y001210D02*
X007630Y000610D01*
X006630Y000610D02*
X006630Y001210D01*
X005630Y001210D02*
X005630Y000610D01*
X004630Y000610D02*
X004630Y001210D01*
X003630Y001210D02*
X003630Y000610D01*
X002630Y000610D02*
X002630Y001210D01*
X001630Y001210D02*
X001630Y000610D01*
X000630Y000610D02*
X000630Y001210D01*
X023380Y001210D02*
X023380Y000610D01*
X024380Y000610D02*
X024380Y001210D01*
X025380Y001210D02*
X025380Y000610D01*
X026380Y000610D02*
X026380Y001210D01*
X027380Y001210D02*
X027380Y000610D01*
X028380Y000610D02*
X028380Y001210D01*
X029380Y001210D02*
X029380Y000610D01*
X030380Y000610D02*
X030380Y001210D01*
X031380Y001210D02*
X031380Y000610D01*
X032380Y000610D02*
X032380Y001210D01*
X033380Y001210D02*
X033380Y000610D01*
X034380Y000610D02*
X034380Y001210D01*
X035380Y001210D02*
X035380Y000610D01*
X036380Y000610D02*
X036380Y001210D01*
X037380Y001210D02*
X037380Y000610D01*
X038380Y000610D02*
X038380Y001210D01*
D18*
X010380Y011480D03*
X009880Y011480D03*
X009380Y011480D03*
X008880Y011480D03*
X008380Y011480D03*
X007880Y011480D03*
X007380Y011480D03*
X006880Y011480D03*
X006380Y011480D03*
X005880Y011480D03*
X005380Y011480D03*
X004880Y011480D03*
X004380Y011480D03*
X003880Y011480D03*
X003880Y015840D03*
X004380Y015840D03*
X004880Y015840D03*
X005380Y015840D03*
X005880Y015840D03*
X006380Y015840D03*
X006880Y015840D03*
X007380Y015840D03*
X007880Y015840D03*
X008380Y015840D03*
X008880Y015840D03*
X009380Y015840D03*
X009880Y015840D03*
X010380Y015840D03*
D19*
X003160Y005300D03*
X000600Y005300D03*
X000600Y003520D03*
X003160Y003520D03*
X035900Y003070D03*
X038460Y003070D03*
X038460Y004850D03*
X035900Y004850D03*
D20*
X035230Y004410D03*
X035230Y003360D03*
X020330Y003010D03*
X017780Y004360D03*
X020330Y005710D03*
X004680Y004010D03*
X003880Y003960D03*
X003880Y005160D03*
D21*
X021630Y005360D03*
X021630Y003460D03*
D22*
X020330Y003860D03*
X020330Y004860D03*
X018330Y004860D03*
X018330Y003860D03*
M02*
