%
M48
M72
T01C0.0320
T02C0.0400
%
T01
X18330Y3860
X18330Y4860
X20330Y4860
X21630Y5360
X20330Y3860
X21630Y3460
T02
X630Y910
X1630Y910
X2630Y910
X3630Y910
X4630Y910
X5630Y910
X6630Y910
X7630Y910
X8630Y910
X9630Y910
X10630Y910
X11630Y910
X12630Y910
X13630Y910
X14630Y910
X15630Y910
X16630Y910
X17630Y910
X18630Y910
X19630Y910
X20630Y910
X21630Y910
X23380Y910
X24380Y910
X25380Y910
X26380Y910
X27380Y910
X28380Y910
X29380Y910
X30380Y910
X31380Y910
X32380Y910
X33380Y910
X34380Y910
X35380Y910
X36380Y910
X37380Y910
X38380Y910
X38460Y3070
X35900Y3070
X35230Y3360
X35230Y4410
X35900Y4850
X38460Y4850
X38380Y6910
X37380Y6910
X36380Y6910
X35380Y6910
X34380Y6910
X33380Y6910
X32380Y6910
X31380Y6910
X30380Y6910
X29380Y6910
X28380Y6910
X27380Y6910
X26380Y6910
X25380Y6910
X24380Y6910
X23380Y6910
X21630Y7910
X20630Y7910
X19630Y7910
X18630Y7910
X17630Y7910
X16630Y7910
X15630Y7910
X14630Y7910
X13630Y7910
X12630Y7910
X11630Y7910
X10630Y7910
X9630Y7910
X8630Y7910
X7630Y7910
X6630Y7910
X5630Y7910
X4630Y7910
X3630Y7910
X2630Y7910
X1630Y7910
X630Y7910
X630Y9660
X1630Y9660
X2630Y9660
X3630Y9660
X4630Y9660
X5630Y9660
X6630Y9660
X7630Y9660
X8630Y9660
X9630Y9660
X10630Y9660
X11630Y9660
X12630Y9660
X13630Y9660
X15630Y9660
X16630Y9660
X17630Y9660
X19630Y9660
X20630Y9660
X21630Y9660
X24380Y10660
X24380Y11660
X24380Y12660
X24380Y13660
X24380Y14660
X24380Y15660
X24380Y16660
X24380Y17660
X21630Y17660
X20630Y17660
X19630Y17660
X17630Y17660
X16630Y17660
X15630Y17660
X13630Y17660
X12630Y17660
X11630Y17660
X10630Y17660
X9630Y17660
X8630Y17660
X7630Y17660
X6630Y17660
X5630Y17660
X4630Y17660
X3630Y17660
X2630Y17660
X1630Y17660
X630Y17660
X15630Y14660
X16630Y14660
X17630Y14660
X19630Y14660
X20630Y14660
X21630Y14660
X21630Y12660
X20630Y12660
X19630Y12660
X17630Y12660
X16630Y12660
X15630Y12660
X29380Y12660
X31130Y12660
X31130Y11660
X29380Y11660
X29380Y10660
X31130Y10660
X31130Y9660
X31130Y8660
X38130Y8660
X38130Y9660
X38130Y10660
X38130Y11660
X38130Y12660
X38130Y13660
X38130Y14660
X38130Y15660
X38130Y16660
X38130Y17660
X31130Y17660
X29380Y17660
X29380Y16660
X31130Y16660
X31130Y15660
X29380Y15660
X29380Y14660
X31130Y14660
X31130Y13660
X29380Y13660
X20330Y5710
X17780Y4360
X20330Y3010
X4680Y4010
X3880Y3960
X3160Y3520
X600Y3520
X3880Y5160
X3160Y5300
X600Y5300
M30
