G75*
%MOIN*%
%OFA0B0*%
%FSLAX24Y24*%
%IPPOS*%
%LPD*%
%AMOC8*
5,1,8,0,0,1.08239X$1,22.5*
%
%ADD10C,0.0000*%
%ADD11R,0.0591X0.0197*%
%ADD12R,0.0197X0.0591*%
%ADD13R,0.0780X0.0220*%
%ADD14R,0.0200X0.0580*%
%ADD15R,0.0670X0.0180*%
%ADD16R,0.0220X0.0500*%
%ADD17R,0.0220X0.0700*%
D10*
X000130Y000160D02*
X000130Y018656D01*
X039000Y018656D01*
X039000Y000160D01*
X000130Y000160D01*
D11*
G36*
X008679Y004048D02*
X008263Y003632D01*
X008125Y003770D01*
X008541Y004186D01*
X008679Y004048D01*
G37*
G36*
X008902Y003825D02*
X008486Y003409D01*
X008348Y003547D01*
X008764Y003963D01*
X008902Y003825D01*
G37*
G36*
X009124Y003602D02*
X008708Y003186D01*
X008570Y003324D01*
X008986Y003740D01*
X009124Y003602D01*
G37*
G36*
X009347Y003380D02*
X008931Y002964D01*
X008793Y003102D01*
X009209Y003518D01*
X009347Y003380D01*
G37*
G36*
X009570Y003157D02*
X009154Y002741D01*
X009016Y002879D01*
X009432Y003295D01*
X009570Y003157D01*
G37*
G36*
X009792Y002934D02*
X009376Y002518D01*
X009238Y002656D01*
X009654Y003072D01*
X009792Y002934D01*
G37*
G36*
X010015Y002712D02*
X009599Y002296D01*
X009461Y002434D01*
X009877Y002850D01*
X010015Y002712D01*
G37*
G36*
X010238Y002489D02*
X009822Y002073D01*
X009684Y002211D01*
X010100Y002627D01*
X010238Y002489D01*
G37*
G36*
X010460Y002266D02*
X010044Y001850D01*
X009906Y001988D01*
X010322Y002404D01*
X010460Y002266D01*
G37*
G36*
X010683Y002044D02*
X010267Y001628D01*
X010129Y001766D01*
X010545Y002182D01*
X010683Y002044D01*
G37*
G36*
X010906Y001821D02*
X010490Y001405D01*
X010352Y001543D01*
X010768Y001959D01*
X010906Y001821D01*
G37*
G36*
X014135Y005050D02*
X013719Y004634D01*
X013581Y004772D01*
X013997Y005188D01*
X014135Y005050D01*
G37*
G36*
X013912Y005273D02*
X013496Y004857D01*
X013358Y004995D01*
X013774Y005411D01*
X013912Y005273D01*
G37*
G36*
X013690Y005496D02*
X013274Y005080D01*
X013136Y005218D01*
X013552Y005634D01*
X013690Y005496D01*
G37*
G36*
X013467Y005718D02*
X013051Y005302D01*
X012913Y005440D01*
X013329Y005856D01*
X013467Y005718D01*
G37*
G36*
X013244Y005941D02*
X012828Y005525D01*
X012690Y005663D01*
X013106Y006079D01*
X013244Y005941D01*
G37*
G36*
X013022Y006164D02*
X012606Y005748D01*
X012468Y005886D01*
X012884Y006302D01*
X013022Y006164D01*
G37*
G36*
X012799Y006386D02*
X012383Y005970D01*
X012245Y006108D01*
X012661Y006524D01*
X012799Y006386D01*
G37*
G36*
X012576Y006609D02*
X012160Y006193D01*
X012022Y006331D01*
X012438Y006747D01*
X012576Y006609D01*
G37*
G36*
X012354Y006832D02*
X011938Y006416D01*
X011800Y006554D01*
X012216Y006970D01*
X012354Y006832D01*
G37*
G36*
X012131Y007054D02*
X011715Y006638D01*
X011577Y006776D01*
X011993Y007192D01*
X012131Y007054D01*
G37*
G36*
X011908Y007277D02*
X011492Y006861D01*
X011354Y006999D01*
X011770Y007415D01*
X011908Y007277D01*
G37*
D12*
G36*
X010906Y006999D02*
X010768Y006861D01*
X010352Y007277D01*
X010490Y007415D01*
X010906Y006999D01*
G37*
G36*
X010683Y006776D02*
X010545Y006638D01*
X010129Y007054D01*
X010267Y007192D01*
X010683Y006776D01*
G37*
G36*
X010460Y006554D02*
X010322Y006416D01*
X009906Y006832D01*
X010044Y006970D01*
X010460Y006554D01*
G37*
G36*
X010238Y006331D02*
X010100Y006193D01*
X009684Y006609D01*
X009822Y006747D01*
X010238Y006331D01*
G37*
G36*
X010015Y006108D02*
X009877Y005970D01*
X009461Y006386D01*
X009599Y006524D01*
X010015Y006108D01*
G37*
G36*
X009792Y005886D02*
X009654Y005748D01*
X009238Y006164D01*
X009376Y006302D01*
X009792Y005886D01*
G37*
G36*
X009570Y005663D02*
X009432Y005525D01*
X009016Y005941D01*
X009154Y006079D01*
X009570Y005663D01*
G37*
G36*
X009347Y005440D02*
X009209Y005302D01*
X008793Y005718D01*
X008931Y005856D01*
X009347Y005440D01*
G37*
G36*
X009124Y005218D02*
X008986Y005080D01*
X008570Y005496D01*
X008708Y005634D01*
X009124Y005218D01*
G37*
G36*
X008902Y004995D02*
X008764Y004857D01*
X008348Y005273D01*
X008486Y005411D01*
X008902Y004995D01*
G37*
G36*
X008679Y004772D02*
X008541Y004634D01*
X008125Y005050D01*
X008263Y005188D01*
X008679Y004772D01*
G37*
G36*
X013022Y002656D02*
X012884Y002518D01*
X012468Y002934D01*
X012606Y003072D01*
X013022Y002656D01*
G37*
G36*
X012799Y002434D02*
X012661Y002296D01*
X012245Y002712D01*
X012383Y002850D01*
X012799Y002434D01*
G37*
G36*
X012576Y002211D02*
X012438Y002073D01*
X012022Y002489D01*
X012160Y002627D01*
X012576Y002211D01*
G37*
G36*
X012354Y001988D02*
X012216Y001850D01*
X011800Y002266D01*
X011938Y002404D01*
X012354Y001988D01*
G37*
G36*
X012131Y001766D02*
X011993Y001628D01*
X011577Y002044D01*
X011715Y002182D01*
X012131Y001766D01*
G37*
G36*
X011908Y001543D02*
X011770Y001405D01*
X011354Y001821D01*
X011492Y001959D01*
X011908Y001543D01*
G37*
G36*
X013244Y002879D02*
X013106Y002741D01*
X012690Y003157D01*
X012828Y003295D01*
X013244Y002879D01*
G37*
G36*
X013467Y003102D02*
X013329Y002964D01*
X012913Y003380D01*
X013051Y003518D01*
X013467Y003102D01*
G37*
G36*
X013690Y003324D02*
X013552Y003186D01*
X013136Y003602D01*
X013274Y003740D01*
X013690Y003324D01*
G37*
G36*
X013912Y003547D02*
X013774Y003409D01*
X013358Y003825D01*
X013496Y003963D01*
X013912Y003547D01*
G37*
G36*
X014135Y003770D02*
X013997Y003632D01*
X013581Y004048D01*
X013719Y004186D01*
X014135Y003770D01*
G37*
D13*
X032780Y010910D03*
X032780Y011410D03*
X032780Y011910D03*
X032780Y012410D03*
X032780Y012910D03*
X032780Y013410D03*
X032780Y013910D03*
X032780Y014410D03*
X032780Y014910D03*
X032780Y015410D03*
X036480Y015410D03*
X036480Y014910D03*
X036480Y014410D03*
X036480Y013910D03*
X036480Y013410D03*
X036480Y012910D03*
X036480Y012410D03*
X036480Y011910D03*
X036480Y011410D03*
X036480Y010910D03*
D14*
G36*
X031114Y005558D02*
X030973Y005699D01*
X031382Y006108D01*
X031523Y005967D01*
X031114Y005558D01*
G37*
G36*
X031333Y005339D02*
X031192Y005480D01*
X031601Y005889D01*
X031742Y005748D01*
X031333Y005339D01*
G37*
G36*
X031559Y005113D02*
X031418Y005254D01*
X031827Y005663D01*
X031968Y005522D01*
X031559Y005113D01*
G37*
G36*
X031778Y004894D02*
X031637Y005035D01*
X032046Y005444D01*
X032187Y005303D01*
X031778Y004894D01*
G37*
G36*
X032005Y004667D02*
X031864Y004808D01*
X032273Y005217D01*
X032414Y005076D01*
X032005Y004667D01*
G37*
G36*
X032224Y004448D02*
X032083Y004589D01*
X032492Y004998D01*
X032633Y004857D01*
X032224Y004448D01*
G37*
G36*
X032450Y004222D02*
X032309Y004363D01*
X032718Y004772D01*
X032859Y004631D01*
X032450Y004222D01*
G37*
G36*
X032669Y004003D02*
X032528Y004144D01*
X032937Y004553D01*
X033078Y004412D01*
X032669Y004003D01*
G37*
G36*
X032528Y003676D02*
X032669Y003817D01*
X033078Y003408D01*
X032937Y003267D01*
X032528Y003676D01*
G37*
G36*
X032309Y003457D02*
X032450Y003598D01*
X032859Y003189D01*
X032718Y003048D01*
X032309Y003457D01*
G37*
G36*
X032083Y003231D02*
X032224Y003372D01*
X032633Y002963D01*
X032492Y002822D01*
X032083Y003231D01*
G37*
G36*
X031864Y003012D02*
X032005Y003153D01*
X032414Y002744D01*
X032273Y002603D01*
X031864Y003012D01*
G37*
G36*
X031637Y002785D02*
X031778Y002926D01*
X032187Y002517D01*
X032046Y002376D01*
X031637Y002785D01*
G37*
G36*
X031418Y002566D02*
X031559Y002707D01*
X031968Y002298D01*
X031827Y002157D01*
X031418Y002566D01*
G37*
G36*
X031192Y002340D02*
X031333Y002481D01*
X031742Y002072D01*
X031601Y001931D01*
X031192Y002340D01*
G37*
G36*
X030973Y002121D02*
X031114Y002262D01*
X031523Y001853D01*
X031382Y001712D01*
X030973Y002121D01*
G37*
G36*
X030378Y001712D02*
X030237Y001853D01*
X030646Y002262D01*
X030787Y002121D01*
X030378Y001712D01*
G37*
G36*
X030159Y001931D02*
X030018Y002072D01*
X030427Y002481D01*
X030568Y002340D01*
X030159Y001931D01*
G37*
G36*
X029933Y002157D02*
X029792Y002298D01*
X030201Y002707D01*
X030342Y002566D01*
X029933Y002157D01*
G37*
G36*
X029714Y002376D02*
X029573Y002517D01*
X029982Y002926D01*
X030123Y002785D01*
X029714Y002376D01*
G37*
G36*
X029487Y002603D02*
X029346Y002744D01*
X029755Y003153D01*
X029896Y003012D01*
X029487Y002603D01*
G37*
G36*
X029268Y002822D02*
X029127Y002963D01*
X029536Y003372D01*
X029677Y003231D01*
X029268Y002822D01*
G37*
G36*
X029042Y003048D02*
X028901Y003189D01*
X029310Y003598D01*
X029451Y003457D01*
X029042Y003048D01*
G37*
G36*
X028823Y003267D02*
X028682Y003408D01*
X029091Y003817D01*
X029232Y003676D01*
X028823Y003267D01*
G37*
G36*
X028682Y004412D02*
X028823Y004553D01*
X029232Y004144D01*
X029091Y004003D01*
X028682Y004412D01*
G37*
G36*
X028901Y004631D02*
X029042Y004772D01*
X029451Y004363D01*
X029310Y004222D01*
X028901Y004631D01*
G37*
G36*
X029127Y004857D02*
X029268Y004998D01*
X029677Y004589D01*
X029536Y004448D01*
X029127Y004857D01*
G37*
G36*
X029346Y005076D02*
X029487Y005217D01*
X029896Y004808D01*
X029755Y004667D01*
X029346Y005076D01*
G37*
G36*
X029573Y005303D02*
X029714Y005444D01*
X030123Y005035D01*
X029982Y004894D01*
X029573Y005303D01*
G37*
G36*
X029792Y005522D02*
X029933Y005663D01*
X030342Y005254D01*
X030201Y005113D01*
X029792Y005522D01*
G37*
G36*
X030018Y005748D02*
X030159Y005889D01*
X030568Y005480D01*
X030427Y005339D01*
X030018Y005748D01*
G37*
G36*
X030237Y005967D02*
X030378Y006108D01*
X030787Y005699D01*
X030646Y005558D01*
X030237Y005967D01*
G37*
D15*
X027900Y012410D03*
X027900Y012910D03*
X027900Y013410D03*
X027900Y013910D03*
X027900Y014410D03*
X027900Y014910D03*
X027900Y015410D03*
X027900Y015910D03*
X025860Y015910D03*
X025860Y015410D03*
X025860Y014910D03*
X025860Y014410D03*
X025860Y013910D03*
X025860Y013410D03*
X025860Y012910D03*
X025860Y012410D03*
D16*
X021000Y011670D03*
X020630Y011670D03*
X020260Y011670D03*
X020260Y010650D03*
X020630Y010650D03*
X021000Y010650D03*
X017000Y010650D03*
X016630Y010650D03*
X016260Y010650D03*
X016260Y011670D03*
X016630Y011670D03*
X017000Y011670D03*
X017000Y015650D03*
X016630Y015650D03*
X016260Y015650D03*
X016260Y016670D03*
X016630Y016670D03*
X017000Y016670D03*
X020260Y016670D03*
X020630Y016670D03*
X021000Y016670D03*
X021000Y015650D03*
X020630Y015650D03*
X020260Y015650D03*
D17*
X010380Y015840D03*
X009880Y015840D03*
X009380Y015840D03*
X008880Y015840D03*
X008380Y015840D03*
X007880Y015840D03*
X007380Y015840D03*
X006880Y015840D03*
X006380Y015840D03*
X005880Y015840D03*
X005380Y015840D03*
X004880Y015840D03*
X004380Y015840D03*
X003880Y015840D03*
X003880Y011480D03*
X004380Y011480D03*
X004880Y011480D03*
X005380Y011480D03*
X005880Y011480D03*
X006380Y011480D03*
X006880Y011480D03*
X007380Y011480D03*
X007880Y011480D03*
X008380Y011480D03*
X008880Y011480D03*
X009380Y011480D03*
X009880Y011480D03*
X010380Y011480D03*
M02*
