G75*
%MOIN*%
%OFA0B0*%
%FSLAX24Y24*%
%IPPOS*%
%LPD*%
%AMOC8*
5,1,8,0,0,1.08239X$1,22.5*
%
%ADD10C,0.0000*%
%ADD11R,0.0197X0.0866*%
%ADD12R,0.0180X0.0670*%
%ADD13R,0.0500X0.0220*%
%ADD14C,0.0740*%
%ADD15R,0.0140X0.0580*%
%ADD16C,0.0600*%
%ADD17R,0.0480X0.0880*%
%ADD18R,0.1417X0.0866*%
%ADD19C,0.0060*%
%ADD20C,0.0240*%
D10*
X000160Y000800D02*
X000160Y019796D01*
X018280Y019796D01*
X018280Y000800D01*
X000160Y000800D01*
D11*
X014660Y011308D03*
X015160Y011308D03*
X015660Y011308D03*
X016160Y011308D03*
X016160Y013792D03*
X015664Y013792D03*
X015164Y013792D03*
X014664Y013792D03*
X014660Y016308D03*
X015160Y016308D03*
X015660Y016308D03*
X016160Y016308D03*
X016160Y018792D03*
X015664Y018792D03*
X015164Y018792D03*
X014664Y018792D03*
D12*
X009410Y017570D03*
X008910Y017570D03*
X008410Y017570D03*
X007910Y017570D03*
X007410Y017570D03*
X006910Y017570D03*
X006410Y017570D03*
X005910Y017570D03*
X005910Y015530D03*
X006410Y015530D03*
X006910Y015530D03*
X007410Y015530D03*
X007910Y015530D03*
X008410Y015530D03*
X008910Y015530D03*
X009410Y015530D03*
D13*
X007920Y011670D03*
X007920Y011300D03*
X007920Y010930D03*
X006900Y010930D03*
X006900Y011300D03*
X006900Y011670D03*
X002920Y011670D03*
X002920Y011300D03*
X002920Y010930D03*
X001900Y010930D03*
X001900Y011300D03*
X001900Y011670D03*
D14*
X002160Y014050D03*
X001160Y014050D03*
X001160Y019050D03*
X002160Y019050D03*
X016160Y006550D03*
X017160Y006550D03*
X017160Y001550D03*
X016160Y001550D03*
D15*
X009320Y003900D03*
X009070Y003900D03*
X008810Y003900D03*
X008560Y003900D03*
X008300Y003900D03*
X008040Y003900D03*
X007790Y003900D03*
X007530Y003900D03*
X007280Y003900D03*
X007020Y003900D03*
X006760Y003900D03*
X006510Y003900D03*
X006250Y003900D03*
X006000Y003900D03*
X006000Y006200D03*
X006250Y006200D03*
X006510Y006200D03*
X006760Y006200D03*
X007020Y006200D03*
X007280Y006200D03*
X007530Y006200D03*
X007790Y006200D03*
X008040Y006200D03*
X008300Y006200D03*
X008560Y006200D03*
X008810Y006200D03*
X009070Y006200D03*
X009320Y006200D03*
D16*
X009160Y008250D02*
X009160Y008850D01*
X008160Y008850D02*
X008160Y008250D01*
X007160Y008250D02*
X007160Y008850D01*
X006160Y008850D02*
X006160Y008250D01*
X005160Y008250D02*
X005160Y008850D01*
X004160Y008850D02*
X004160Y008250D01*
X003160Y008250D02*
X003160Y008850D01*
X002160Y008850D02*
X002160Y008250D01*
X001160Y008250D02*
X001160Y008850D01*
X001210Y010300D02*
X000610Y010300D01*
X000610Y011300D02*
X001210Y011300D01*
X001210Y012300D02*
X000610Y012300D01*
X003610Y012300D02*
X004210Y012300D01*
X004210Y011300D02*
X003610Y011300D01*
X003610Y010300D02*
X004210Y010300D01*
X005610Y010300D02*
X006210Y010300D01*
X006210Y011300D02*
X005610Y011300D01*
X005610Y012300D02*
X006210Y012300D01*
X006160Y013750D02*
X006160Y014350D01*
X005160Y014350D02*
X005160Y013750D01*
X004160Y013750D02*
X004160Y014350D01*
X007160Y014350D02*
X007160Y013750D01*
X008160Y013750D02*
X008160Y014350D01*
X009160Y014350D02*
X009160Y013750D01*
X010160Y013750D02*
X010160Y014350D01*
X011160Y014350D02*
X011160Y013750D01*
X009210Y012300D02*
X008610Y012300D01*
X008610Y011300D02*
X009210Y011300D01*
X009210Y010300D02*
X008610Y010300D01*
X010160Y008850D02*
X010160Y008250D01*
X011160Y008250D02*
X011160Y008850D01*
X012160Y008850D02*
X012160Y008250D01*
X013160Y008250D02*
X013160Y008850D01*
X014160Y008850D02*
X014160Y008250D01*
X013710Y011050D02*
X013110Y011050D01*
X013110Y012050D02*
X013710Y012050D01*
X013710Y013050D02*
X013110Y013050D01*
X013110Y014050D02*
X013710Y014050D01*
X013710Y016050D02*
X013110Y016050D01*
X013110Y017050D02*
X013710Y017050D01*
X013710Y018050D02*
X013110Y018050D01*
X013110Y019050D02*
X013710Y019050D01*
X011160Y019350D02*
X011160Y018750D01*
X010160Y018750D02*
X010160Y019350D01*
X009160Y019350D02*
X009160Y018750D01*
X008160Y018750D02*
X008160Y019350D01*
X007160Y019350D02*
X007160Y018750D01*
X006160Y018750D02*
X006160Y019350D01*
X005160Y019350D02*
X005160Y018750D01*
X004160Y018750D02*
X004160Y019350D01*
X017110Y019050D02*
X017710Y019050D01*
X017710Y018050D02*
X017110Y018050D01*
X017110Y017050D02*
X017710Y017050D01*
X017710Y016050D02*
X017110Y016050D01*
X017110Y014050D02*
X017710Y014050D01*
X017710Y013050D02*
X017110Y013050D01*
X017110Y012050D02*
X017710Y012050D01*
X017710Y011050D02*
X017110Y011050D01*
X014160Y001850D02*
X014160Y001250D01*
X013160Y001250D02*
X013160Y001850D01*
X012160Y001850D02*
X012160Y001250D01*
X011160Y001250D02*
X011160Y001850D01*
X010160Y001850D02*
X010160Y001250D01*
X009160Y001250D02*
X009160Y001850D01*
X008160Y001850D02*
X008160Y001250D01*
X007160Y001250D02*
X007160Y001850D01*
X006160Y001850D02*
X006160Y001250D01*
X005160Y001250D02*
X005160Y001850D01*
X004160Y001850D02*
X004160Y001250D01*
X003160Y001250D02*
X003160Y001850D01*
X002160Y001850D02*
X002160Y001250D01*
X001160Y001250D02*
X001160Y001850D01*
D17*
X000750Y015330D03*
X001660Y015330D03*
X002570Y015330D03*
X015750Y002830D03*
X016660Y002830D03*
X017570Y002830D03*
D18*
X016660Y005270D03*
X001660Y017770D03*
D19*
X001660Y017800D01*
X002160Y017800D01*
X004160Y017600D02*
X004160Y019050D01*
X005160Y019050D02*
X005160Y019000D01*
X006160Y018000D01*
X006160Y017800D01*
X006360Y017600D01*
X006410Y017570D01*
X006660Y017800D02*
X006660Y018500D01*
X006160Y019000D01*
X006160Y019050D01*
X007160Y019050D02*
X007160Y017800D01*
X007360Y017600D01*
X007410Y017570D01*
X006910Y017570D02*
X006860Y017600D01*
X006660Y017800D01*
X005910Y017570D02*
X005860Y017600D01*
X004160Y017600D01*
X004160Y015500D02*
X004160Y014050D01*
X005160Y014050D02*
X005160Y014100D01*
X006160Y015100D01*
X006160Y015300D01*
X006360Y015500D01*
X006410Y015530D01*
X006660Y015300D02*
X006660Y014600D01*
X006160Y014100D01*
X006160Y014050D01*
X007160Y014050D02*
X007160Y015300D01*
X007360Y015500D01*
X007410Y015530D01*
X006910Y015530D02*
X006860Y015500D01*
X006660Y015300D01*
X005910Y015530D02*
X005860Y015500D01*
X004160Y015500D01*
X003910Y012300D02*
X003860Y012300D01*
X003860Y011700D01*
X002960Y011700D01*
X002920Y011670D01*
X002920Y011300D02*
X003910Y011300D01*
X003860Y010900D02*
X003860Y010300D01*
X003910Y010300D01*
X003860Y010900D02*
X002960Y010900D01*
X002920Y010930D01*
X001900Y010930D02*
X001860Y010900D01*
X000960Y010900D01*
X000960Y010300D01*
X000910Y010300D01*
X000910Y011300D02*
X001900Y011300D01*
X001900Y011670D02*
X001860Y011700D01*
X000960Y011700D01*
X000960Y012300D01*
X000910Y012300D01*
X001160Y008550D02*
X001160Y006200D01*
X006000Y006200D01*
X006160Y006300D02*
X006160Y006600D01*
X005560Y007200D01*
X002160Y007200D01*
X002160Y008550D01*
X003160Y008550D02*
X003160Y007600D01*
X005360Y007600D01*
X006460Y006500D01*
X006460Y006200D01*
X006510Y006200D01*
X006760Y006200D02*
X006760Y006500D01*
X005460Y007800D01*
X004160Y007800D01*
X004160Y008550D01*
X005160Y008550D02*
X005160Y008500D01*
X006960Y006700D01*
X006960Y006200D01*
X007020Y006200D01*
X007260Y006200D02*
X007280Y006200D01*
X007260Y006200D02*
X007260Y007400D01*
X006160Y008500D01*
X006160Y008550D01*
X007160Y008550D02*
X007160Y008500D01*
X007460Y008200D01*
X007460Y006300D01*
X007560Y006200D01*
X007530Y006200D01*
X007760Y006200D02*
X007790Y006200D01*
X007760Y006200D02*
X007860Y006300D01*
X007860Y008200D01*
X008160Y008500D01*
X008160Y008550D01*
X009160Y008550D02*
X009160Y008500D01*
X008060Y007400D01*
X008060Y006200D01*
X008040Y006200D01*
X008300Y006200D02*
X008360Y006200D01*
X008360Y007000D01*
X009160Y007800D01*
X010160Y007800D01*
X010160Y008550D01*
X009460Y007600D02*
X011160Y007600D01*
X011160Y008550D01*
X012160Y008550D02*
X012160Y007400D01*
X009760Y007400D01*
X008860Y006500D01*
X008860Y006200D01*
X008810Y006200D01*
X008560Y006200D02*
X008560Y006700D01*
X009460Y007600D01*
X009760Y007200D02*
X013160Y007200D01*
X013160Y008550D01*
X014160Y008550D02*
X014160Y006200D01*
X009320Y006200D01*
X009160Y006300D02*
X009160Y006600D01*
X009760Y007200D01*
X009160Y006300D02*
X009060Y006200D01*
X009070Y006200D01*
X009060Y003900D02*
X009070Y003900D01*
X009060Y003900D02*
X009160Y003800D01*
X009160Y003500D01*
X009760Y002900D01*
X013160Y002900D01*
X013160Y001550D01*
X012160Y001550D02*
X012160Y002500D01*
X009960Y002500D01*
X008860Y003600D01*
X008860Y003900D01*
X008810Y003900D01*
X008560Y003900D02*
X008560Y003600D01*
X009860Y002300D01*
X011160Y002300D01*
X011160Y001550D01*
X010160Y001550D02*
X010160Y001600D01*
X008360Y003400D01*
X008360Y003900D01*
X008300Y003900D01*
X008060Y003900D02*
X008040Y003900D01*
X008060Y003900D02*
X008060Y002700D01*
X009160Y001600D01*
X009160Y001550D01*
X008160Y001550D02*
X008160Y001600D01*
X007860Y001900D01*
X007860Y003800D01*
X007760Y003900D01*
X007790Y003900D01*
X007560Y003900D02*
X007530Y003900D01*
X007560Y003900D02*
X007460Y003800D01*
X007460Y001900D01*
X007160Y001600D01*
X007160Y001550D01*
X006160Y001550D02*
X006160Y001600D01*
X007260Y002700D01*
X007260Y003900D01*
X007280Y003900D01*
X007020Y003900D02*
X006960Y003900D01*
X006960Y003300D01*
X005160Y001500D01*
X005160Y001550D01*
X005560Y002300D02*
X004160Y002300D01*
X004160Y001550D01*
X003160Y001550D02*
X003160Y002500D01*
X005360Y002500D01*
X006460Y003600D01*
X006460Y003900D01*
X006510Y003900D01*
X006260Y003900D02*
X006250Y003900D01*
X006260Y003900D02*
X006160Y003800D01*
X006160Y003500D01*
X005360Y002700D01*
X002160Y002700D01*
X002160Y001550D01*
X001160Y001550D02*
X001160Y003900D01*
X006000Y003900D01*
X006760Y003900D02*
X006760Y003500D01*
X005560Y002300D01*
X006250Y006200D02*
X006260Y006200D01*
X006160Y006300D01*
X009320Y003900D02*
X014160Y003900D01*
X014160Y001550D01*
X016660Y005270D02*
X016660Y005300D01*
X017160Y005300D01*
X015860Y010500D02*
X013460Y010500D01*
X013460Y011000D01*
X013410Y011050D01*
X013760Y011600D02*
X012660Y011600D01*
X012660Y013300D01*
X013410Y014050D01*
X013410Y013050D02*
X013960Y012500D01*
X013960Y012400D01*
X015260Y012400D01*
X015860Y011800D01*
X015860Y010700D01*
X015560Y010700D01*
X015460Y010800D01*
X015460Y011000D01*
X015160Y011300D01*
X015160Y011308D01*
X015360Y011700D02*
X015360Y011800D01*
X015160Y012000D01*
X013460Y012000D01*
X013410Y012050D01*
X013760Y011600D02*
X013960Y011400D01*
X014660Y011400D01*
X014660Y011308D01*
X015360Y011700D02*
X015660Y011400D01*
X015660Y011308D01*
X016060Y011200D02*
X016060Y010700D01*
X015860Y010500D01*
X016060Y011200D02*
X016160Y011300D01*
X016160Y011308D01*
X016660Y011800D02*
X017410Y011050D01*
X016660Y011800D02*
X016660Y012600D01*
X015160Y012600D01*
X014460Y013300D01*
X014460Y014800D01*
X015960Y014800D01*
X016160Y014600D01*
X016160Y013792D01*
X015664Y013792D02*
X015660Y013800D01*
X015360Y014100D01*
X015360Y014300D01*
X015260Y014400D01*
X015060Y014400D01*
X014960Y014300D01*
X014960Y013300D01*
X015460Y012800D01*
X016760Y012800D01*
X016760Y012700D01*
X017410Y012050D01*
X017360Y013000D02*
X017410Y013050D01*
X017360Y013000D02*
X015760Y013000D01*
X015460Y013300D01*
X015460Y013500D01*
X015260Y013700D01*
X015164Y013792D01*
X014760Y013800D02*
X014760Y014300D01*
X015060Y014600D01*
X015960Y014600D01*
X015960Y013300D01*
X016060Y013200D01*
X016660Y013200D01*
X016660Y013300D01*
X017410Y014050D01*
X015860Y015500D02*
X016060Y015700D01*
X016060Y016200D01*
X016160Y016300D01*
X016160Y016308D01*
X015660Y016308D02*
X015660Y016400D01*
X015360Y016700D01*
X015360Y016800D01*
X015160Y017000D01*
X013460Y017000D01*
X013410Y017050D01*
X013760Y016600D02*
X012660Y016600D01*
X012660Y018300D01*
X013410Y019050D01*
X013410Y018050D02*
X013460Y018000D01*
X014660Y018000D01*
X015860Y016800D01*
X015860Y015700D01*
X015560Y015700D01*
X015460Y015800D01*
X015460Y016000D01*
X015160Y016300D01*
X015160Y016308D01*
X014660Y016308D02*
X014660Y016400D01*
X013960Y016400D01*
X013760Y016600D01*
X013410Y016050D02*
X013460Y016000D01*
X013460Y015500D01*
X015860Y015500D01*
X016160Y017100D02*
X017360Y017100D01*
X017410Y017050D01*
X017410Y018050D02*
X017360Y018100D01*
X015660Y018100D01*
X015460Y018300D01*
X015460Y018500D01*
X015260Y018700D01*
X015164Y018792D01*
X015360Y019100D02*
X015360Y019300D01*
X015260Y019400D01*
X015060Y019400D01*
X014960Y019300D01*
X014960Y018300D01*
X016160Y017100D01*
X015664Y018792D02*
X015660Y018800D01*
X015360Y019100D01*
X015060Y019600D02*
X017360Y019600D01*
X017360Y019100D01*
X017410Y019050D01*
X015060Y019600D02*
X014760Y019300D01*
X014760Y018800D01*
X014664Y018792D01*
X011160Y019050D02*
X011160Y017600D01*
X009460Y017600D01*
X009410Y017570D01*
X009160Y017800D02*
X009160Y018000D01*
X010160Y019000D01*
X010160Y019050D01*
X009160Y019050D02*
X009160Y019000D01*
X008660Y018500D01*
X008660Y017800D01*
X008460Y017600D01*
X008410Y017570D01*
X008160Y017800D02*
X008160Y019050D01*
X008160Y017800D02*
X007960Y017600D01*
X007910Y017570D01*
X008910Y017570D02*
X008960Y017600D01*
X009160Y017800D01*
X008910Y015530D02*
X008960Y015500D01*
X009160Y015300D01*
X009160Y015100D01*
X010160Y014100D01*
X010160Y014050D01*
X011160Y014050D02*
X011160Y015500D01*
X009460Y015500D01*
X009410Y015530D01*
X008660Y015300D02*
X008660Y014600D01*
X009160Y014100D01*
X009160Y014050D01*
X008160Y014050D02*
X008160Y015300D01*
X007960Y015500D01*
X007910Y015530D01*
X008410Y015530D02*
X008460Y015500D01*
X008660Y015300D01*
X008860Y012300D02*
X008910Y012300D01*
X008860Y012300D02*
X008860Y011700D01*
X007960Y011700D01*
X007920Y011670D01*
X007920Y011300D02*
X008910Y011300D01*
X008860Y010900D02*
X008860Y010300D01*
X008910Y010300D01*
X008860Y010900D02*
X007960Y010900D01*
X007920Y010930D01*
X006900Y010930D02*
X006860Y010900D01*
X005960Y010900D01*
X005960Y010300D01*
X005910Y010300D01*
X005910Y011300D02*
X006900Y011300D01*
X006900Y011670D02*
X006860Y011700D01*
X005960Y011700D01*
X005960Y012300D01*
X005910Y012300D01*
X014664Y013792D02*
X014760Y013800D01*
D20*
X015660Y006550D02*
X015410Y006300D01*
X015410Y004550D01*
X015910Y004050D01*
X016410Y004050D01*
X016660Y003800D01*
X016660Y002830D01*
X015750Y002830D02*
X015750Y001960D01*
X016160Y001550D01*
X017160Y001550D02*
X017570Y001960D01*
X017570Y002830D01*
X017160Y005300D02*
X017160Y006550D01*
X016160Y006550D02*
X015660Y006550D01*
X002570Y014460D02*
X002160Y014050D01*
X002570Y014460D02*
X002570Y015330D01*
X001660Y015330D02*
X001660Y016300D01*
X001410Y016550D01*
X000660Y016550D01*
X000410Y016800D01*
X000410Y018550D01*
X000910Y019050D01*
X001160Y019050D01*
X002160Y019050D02*
X002160Y017800D01*
X000750Y015330D02*
X000750Y014460D01*
X001160Y014050D01*
M02*
