%
M48
M72
T01C0.0400
%
T01
X1160Y1550
X2160Y1550
X3160Y1550
X4160Y1550
X5160Y1550
X6160Y1550
X7160Y1550
X8160Y1550
X9160Y1550
X10160Y1550
X11160Y1550
X12160Y1550
X13160Y1550
X14160Y1550
X16160Y1550
X17160Y1550
X17160Y6550
X16160Y6550
X14160Y8550
X13160Y8550
X12160Y8550
X11160Y8550
X10160Y8550
X9160Y8550
X8160Y8550
X7160Y8550
X6160Y8550
X5160Y8550
X4160Y8550
X3160Y8550
X2160Y8550
X1160Y8550
X910Y10300
X910Y11300
X910Y12300
X1160Y14050
X2160Y14050
X3910Y12300
X3910Y11300
X3910Y10300
X5910Y10300
X5910Y11300
X5910Y12300
X6160Y14050
X5160Y14050
X4160Y14050
X7160Y14050
X8160Y14050
X9160Y14050
X10160Y14050
X11160Y14050
X13410Y14050
X13410Y13050
X13410Y12050
X13410Y11050
X17410Y11050
X17410Y12050
X17410Y13050
X17410Y14050
X17410Y16050
X17410Y17050
X17410Y18050
X17410Y19050
X13410Y19050
X13410Y18050
X13410Y17050
X13410Y16050
X11160Y19050
X10160Y19050
X9160Y19050
X8160Y19050
X7160Y19050
X6160Y19050
X5160Y19050
X4160Y19050
X2160Y19050
X1160Y19050
X8910Y12300
X8910Y11300
X8910Y10300
M30
