G75*
%MOIN*%
%OFA0B0*%
%FSLAX24Y24*%
%IPPOS*%
%LPD*%
%AMOC8*
5,1,8,0,0,1.08239X$1,22.5*
%
%ADD10C,0.0000*%
%ADD11C,0.0100*%
%ADD12C,0.0040*%
%ADD13C,0.0060*%
%ADD14C,0.0020*%
%ADD15C,0.0030*%
%ADD16C,0.0050*%
%ADD17C,0.0080*%
%ADD18C,0.0070*%
D10*
X000160Y000800D02*
X000160Y019796D01*
X018280Y019796D01*
X018280Y000800D01*
X000160Y000800D01*
D11*
X000410Y009300D02*
X004910Y009300D01*
X004910Y013050D01*
X009910Y013050D01*
X009910Y009300D01*
X018160Y009300D01*
X018160Y010300D02*
X012160Y010300D01*
X012160Y009550D01*
X012160Y010300D02*
X012160Y013050D01*
X012160Y019550D01*
X012660Y015050D02*
X017910Y015050D01*
X015160Y009050D02*
X015160Y007300D01*
X018160Y007300D01*
X015160Y007300D02*
X015160Y001300D01*
X009910Y009300D02*
X004910Y009300D01*
X004910Y013050D02*
X000410Y013050D01*
X003160Y013300D02*
X003160Y019550D01*
X009910Y013050D02*
X012160Y013050D01*
D12*
X011906Y005280D02*
X011941Y005245D01*
X011941Y005210D01*
X011906Y005175D01*
X011801Y005175D01*
X011801Y005070D02*
X011906Y005070D01*
X011941Y005105D01*
X011941Y005140D01*
X011906Y005175D01*
X011906Y005280D02*
X011801Y005280D01*
X011801Y005070D01*
X011836Y004905D02*
X011801Y004870D01*
X011836Y004905D02*
X011906Y004905D01*
X011941Y004870D01*
X011941Y004835D01*
X011801Y004695D01*
X011941Y004695D01*
X012031Y004730D02*
X012031Y004870D01*
X012067Y004905D01*
X012137Y004905D01*
X012172Y004870D01*
X012031Y004730D01*
X012067Y004695D01*
X012137Y004695D01*
X012172Y004730D01*
X012172Y004870D01*
X012262Y004835D02*
X012332Y004905D01*
X012332Y004695D01*
X012262Y004695D02*
X012402Y004695D01*
X012492Y004800D02*
X012632Y004800D01*
X012597Y004695D02*
X012597Y004905D01*
X012492Y004800D01*
X012489Y005070D02*
X012454Y005105D01*
X012489Y005140D01*
X012594Y005140D01*
X012594Y005175D02*
X012594Y005070D01*
X012489Y005070D01*
X012489Y005210D02*
X012559Y005210D01*
X012594Y005175D01*
X012684Y005140D02*
X012789Y005210D01*
X012876Y005175D02*
X012876Y005105D01*
X012911Y005070D01*
X012981Y005070D01*
X013016Y005105D01*
X013016Y005175D01*
X012981Y005210D01*
X012911Y005210D01*
X012876Y005175D01*
X012789Y005070D02*
X012684Y005140D01*
X012684Y005070D02*
X012684Y005280D01*
X012363Y005175D02*
X012363Y005140D01*
X012223Y005140D01*
X012223Y005105D02*
X012223Y005175D01*
X012258Y005210D01*
X012328Y005210D01*
X012363Y005175D01*
X012328Y005070D02*
X012258Y005070D01*
X012223Y005105D01*
X012137Y005210D02*
X012102Y005210D01*
X012031Y005140D01*
X012031Y005070D02*
X012031Y005210D01*
X011481Y005245D02*
X011481Y005105D01*
X011446Y005070D01*
X011341Y005070D01*
X011341Y005280D01*
X011446Y005280D01*
X011481Y005245D01*
X011251Y005280D02*
X011251Y005070D01*
X011111Y005070D02*
X011111Y005280D01*
X011181Y005210D01*
X011251Y005280D01*
X011021Y005245D02*
X010986Y005280D01*
X010916Y005280D01*
X010881Y005245D01*
X010881Y005210D01*
X010916Y005175D01*
X010986Y005175D01*
X011021Y005140D01*
X011021Y005105D01*
X010986Y005070D01*
X010916Y005070D01*
X010881Y005105D01*
X010881Y004905D02*
X011021Y004905D01*
X010951Y004800D02*
X010881Y004800D01*
X010881Y004695D02*
X010881Y004905D01*
X011111Y004800D02*
X011111Y004730D01*
X011146Y004695D01*
X011216Y004695D01*
X011251Y004765D02*
X011111Y004765D01*
X011111Y004800D02*
X011146Y004835D01*
X011216Y004835D01*
X011251Y004800D01*
X011251Y004765D01*
X011341Y004695D02*
X011446Y004695D01*
X011481Y004730D01*
X011481Y004800D01*
X011446Y004835D01*
X011341Y004835D01*
X011341Y004905D02*
X011341Y004695D01*
X013106Y005105D02*
X013141Y005070D01*
X013246Y005070D01*
X013246Y005210D01*
X013336Y005210D02*
X013406Y005210D01*
X013371Y005245D02*
X013371Y005105D01*
X013406Y005070D01*
X013489Y005070D02*
X013594Y005070D01*
X013630Y005105D01*
X013594Y005140D01*
X013524Y005140D01*
X013489Y005175D01*
X013524Y005210D01*
X013630Y005210D01*
X013950Y005245D02*
X013950Y005105D01*
X014090Y005245D01*
X014090Y005105D01*
X014055Y005070D01*
X013985Y005070D01*
X013950Y005105D01*
X013950Y005245D02*
X013985Y005280D01*
X014055Y005280D01*
X014090Y005245D01*
X013106Y005210D02*
X013106Y005105D01*
D13*
X012910Y008050D02*
X012660Y008300D01*
X012410Y008050D01*
X011910Y008050D01*
X011660Y008300D01*
X011410Y008050D01*
X010910Y008050D01*
X010660Y008300D01*
X010410Y008050D01*
X009910Y008050D01*
X009660Y008300D01*
X009410Y008050D01*
X008910Y008050D01*
X008660Y008300D01*
X008410Y008050D01*
X007910Y008050D01*
X007660Y008300D01*
X007410Y008050D01*
X006910Y008050D01*
X006660Y008300D01*
X006410Y008050D01*
X005910Y008050D01*
X005660Y008300D01*
X005410Y008050D01*
X004910Y008050D01*
X004660Y008300D01*
X004410Y008050D01*
X003910Y008050D01*
X003660Y008300D01*
X003410Y008050D01*
X002910Y008050D01*
X002660Y008300D01*
X002410Y008050D01*
X001910Y008050D01*
X001660Y008300D01*
X001410Y008050D01*
X000910Y008050D01*
X000660Y008300D01*
X000660Y008800D01*
X000910Y009050D01*
X001410Y009050D01*
X001660Y008800D01*
X001910Y009050D01*
X002410Y009050D01*
X002660Y008800D01*
X002910Y009050D01*
X003410Y009050D01*
X003660Y008800D01*
X003910Y009050D01*
X004410Y009050D01*
X004660Y008800D01*
X004910Y009050D01*
X005410Y009050D01*
X005660Y008800D01*
X005910Y009050D01*
X006410Y009050D01*
X006660Y008800D01*
X006910Y009050D01*
X007410Y009050D01*
X007660Y008800D01*
X007910Y009050D01*
X008410Y009050D01*
X008660Y008800D01*
X008910Y009050D01*
X009410Y009050D01*
X009660Y008800D01*
X009910Y009050D01*
X010410Y009050D01*
X010660Y008800D01*
X010910Y009050D01*
X011410Y009050D01*
X011660Y008800D01*
X011910Y009050D01*
X012410Y009050D01*
X012660Y008800D01*
X012910Y009050D01*
X013410Y009050D01*
X013660Y008800D01*
X013910Y009050D01*
X014410Y009050D01*
X014660Y008800D01*
X014660Y008300D01*
X014410Y008050D01*
X013910Y008050D01*
X013660Y008300D01*
X013410Y008050D01*
X012910Y008050D01*
X013160Y010550D02*
X012910Y010800D01*
X012910Y011300D01*
X013160Y011550D01*
X012910Y011800D01*
X012910Y012300D01*
X013160Y012550D01*
X012910Y012800D01*
X012910Y013300D01*
X013160Y013550D01*
X012910Y013800D01*
X012910Y014300D01*
X013160Y014550D01*
X013660Y014550D01*
X013910Y014300D01*
X013910Y013800D01*
X013660Y013550D01*
X013910Y013300D01*
X013910Y012800D01*
X013660Y012550D01*
X013910Y012300D01*
X013910Y011800D01*
X013660Y011550D01*
X013910Y011300D01*
X013910Y010800D01*
X013660Y010550D01*
X013160Y010550D01*
X014386Y011664D02*
X014386Y013436D01*
X014387Y013436D02*
X014388Y013453D01*
X014393Y013470D01*
X014400Y013485D01*
X014410Y013499D01*
X014422Y013511D01*
X014436Y013521D01*
X014451Y013528D01*
X014468Y013533D01*
X014485Y013534D01*
X014493Y013534D02*
X014544Y013534D01*
X014784Y013534D02*
X015040Y013534D01*
X015284Y013534D02*
X015540Y013534D01*
X015784Y013534D02*
X016036Y013534D01*
X016280Y013534D02*
X016331Y013534D01*
X016335Y013534D02*
X016352Y013533D01*
X016369Y013528D01*
X016384Y013521D01*
X016398Y013511D01*
X016410Y013499D01*
X016420Y013485D01*
X016427Y013470D01*
X016432Y013453D01*
X016433Y013436D01*
X016434Y013432D02*
X016434Y011664D01*
X016433Y011664D02*
X016432Y011647D01*
X016427Y011630D01*
X016420Y011615D01*
X016410Y011601D01*
X016398Y011589D01*
X016384Y011579D01*
X016369Y011572D01*
X016352Y011567D01*
X016335Y011566D01*
X016331Y011566D02*
X016280Y011566D01*
X016036Y011566D02*
X015784Y011566D01*
X015536Y011566D02*
X015284Y011566D01*
X015036Y011566D02*
X014784Y011566D01*
X014540Y011566D02*
X014481Y011566D01*
X014485Y011566D02*
X014468Y011567D01*
X014451Y011572D01*
X014436Y011579D01*
X014422Y011589D01*
X014410Y011601D01*
X014400Y011615D01*
X014393Y011630D01*
X014388Y011647D01*
X014387Y011664D01*
X016910Y011800D02*
X016910Y012300D01*
X017160Y012550D01*
X016910Y012800D01*
X016910Y013300D01*
X017160Y013550D01*
X016910Y013800D01*
X016910Y014300D01*
X017160Y014550D01*
X017660Y014550D01*
X017910Y014300D01*
X017910Y013800D01*
X017660Y013550D01*
X017910Y013300D01*
X017910Y012800D01*
X017660Y012550D01*
X017910Y012300D01*
X017910Y011800D01*
X017660Y011550D01*
X017910Y011300D01*
X017910Y010800D01*
X017660Y010550D01*
X017160Y010550D01*
X016910Y010800D01*
X016910Y011300D01*
X017160Y011550D01*
X016910Y011800D01*
X017160Y015550D02*
X016910Y015800D01*
X016910Y016300D01*
X017160Y016550D01*
X016910Y016800D01*
X016910Y017300D01*
X017160Y017550D01*
X016910Y017800D01*
X016910Y018300D01*
X017160Y018550D01*
X016910Y018800D01*
X016910Y019300D01*
X017160Y019550D01*
X017660Y019550D01*
X017910Y019300D01*
X017910Y018800D01*
X017660Y018550D01*
X017910Y018300D01*
X017910Y017800D01*
X017660Y017550D01*
X017910Y017300D01*
X017910Y016800D01*
X017660Y016550D01*
X017910Y016300D01*
X017910Y015800D01*
X017660Y015550D01*
X017160Y015550D01*
X016331Y016566D02*
X016280Y016566D01*
X016335Y016566D02*
X016352Y016567D01*
X016369Y016572D01*
X016384Y016579D01*
X016398Y016589D01*
X016410Y016601D01*
X016420Y016615D01*
X016427Y016630D01*
X016432Y016647D01*
X016433Y016664D01*
X016434Y016664D02*
X016434Y018432D01*
X016433Y018436D02*
X016432Y018453D01*
X016427Y018470D01*
X016420Y018485D01*
X016410Y018499D01*
X016398Y018511D01*
X016384Y018521D01*
X016369Y018528D01*
X016352Y018533D01*
X016335Y018534D01*
X016331Y018534D02*
X016280Y018534D01*
X016036Y018534D02*
X015784Y018534D01*
X015540Y018534D02*
X015284Y018534D01*
X015040Y018534D02*
X014784Y018534D01*
X014544Y018534D02*
X014493Y018534D01*
X014485Y018534D02*
X014468Y018533D01*
X014451Y018528D01*
X014436Y018521D01*
X014422Y018511D01*
X014410Y018499D01*
X014400Y018485D01*
X014393Y018470D01*
X014388Y018453D01*
X014387Y018436D01*
X014386Y018436D02*
X014386Y016664D01*
X014387Y016664D02*
X014388Y016647D01*
X014393Y016630D01*
X014400Y016615D01*
X014410Y016601D01*
X014422Y016589D01*
X014436Y016579D01*
X014451Y016572D01*
X014468Y016567D01*
X014485Y016566D01*
X014481Y016566D02*
X014540Y016566D01*
X014784Y016566D02*
X015036Y016566D01*
X015284Y016566D02*
X015536Y016566D01*
X015784Y016566D02*
X016036Y016566D01*
X013910Y016800D02*
X013660Y016550D01*
X013910Y016300D01*
X013910Y015800D01*
X013660Y015550D01*
X013160Y015550D01*
X012910Y015800D01*
X012910Y016300D01*
X013160Y016550D01*
X012910Y016800D01*
X012910Y017300D01*
X013160Y017550D01*
X012910Y017800D01*
X012910Y018300D01*
X013160Y018550D01*
X012910Y018800D01*
X012910Y019300D01*
X013160Y019550D01*
X013660Y019550D01*
X013910Y019300D01*
X013910Y018800D01*
X013660Y018550D01*
X013910Y018300D01*
X013910Y017800D01*
X013660Y017550D01*
X013910Y017300D01*
X013910Y016800D01*
X011660Y018800D02*
X011660Y019300D01*
X011410Y019550D01*
X010910Y019550D01*
X010660Y019300D01*
X010410Y019550D01*
X009910Y019550D01*
X009660Y019300D01*
X009410Y019550D01*
X008910Y019550D01*
X008660Y019300D01*
X008410Y019550D01*
X007910Y019550D01*
X007660Y019300D01*
X007410Y019550D01*
X006910Y019550D01*
X006660Y019300D01*
X006410Y019550D01*
X005910Y019550D01*
X005660Y019300D01*
X005410Y019550D01*
X004910Y019550D01*
X004660Y019300D01*
X004410Y019550D01*
X003910Y019550D01*
X003660Y019300D01*
X003660Y018800D01*
X003910Y018550D01*
X004410Y018550D01*
X004660Y018800D01*
X004910Y018550D01*
X005410Y018550D01*
X005660Y018800D01*
X005910Y018550D01*
X006410Y018550D01*
X006660Y018800D01*
X006910Y018550D01*
X007410Y018550D01*
X007660Y018800D01*
X007910Y018550D01*
X008410Y018550D01*
X008660Y018800D01*
X008910Y018550D01*
X009410Y018550D01*
X009660Y018800D01*
X009910Y018550D01*
X010410Y018550D01*
X010660Y018800D01*
X010910Y018550D01*
X011410Y018550D01*
X011660Y018800D01*
X009610Y017170D02*
X009610Y015930D01*
X009190Y015820D02*
X009130Y015820D01*
X008690Y015820D02*
X008630Y015820D01*
X008190Y015820D02*
X008130Y015820D01*
X007690Y015820D02*
X007630Y015820D01*
X007190Y015820D02*
X007130Y015820D01*
X006690Y015820D02*
X006630Y015820D01*
X006190Y015820D02*
X006130Y015820D01*
X005710Y015930D02*
X005710Y016430D01*
X005710Y016670D01*
X005710Y017170D01*
X006130Y017280D02*
X006190Y017280D01*
X006630Y017280D02*
X006690Y017280D01*
X007130Y017280D02*
X007190Y017280D01*
X007630Y017280D02*
X007690Y017280D01*
X008130Y017280D02*
X008190Y017280D01*
X008630Y017280D02*
X008690Y017280D01*
X009130Y017280D02*
X009190Y017280D01*
X008910Y018030D02*
X008910Y018430D01*
X005710Y016670D02*
X005731Y016668D01*
X005751Y016663D01*
X005770Y016654D01*
X005787Y016642D01*
X005802Y016627D01*
X005814Y016610D01*
X005823Y016591D01*
X005828Y016571D01*
X005830Y016550D01*
X005828Y016529D01*
X005823Y016509D01*
X005814Y016490D01*
X005802Y016473D01*
X005787Y016458D01*
X005770Y016446D01*
X005751Y016437D01*
X005731Y016432D01*
X005710Y016430D01*
X005910Y014550D02*
X006410Y014550D01*
X006660Y014300D01*
X006910Y014550D01*
X007410Y014550D01*
X007660Y014300D01*
X007910Y014550D01*
X008410Y014550D01*
X008660Y014300D01*
X008910Y014550D01*
X009410Y014550D01*
X009660Y014300D01*
X009910Y014550D01*
X010410Y014550D01*
X010660Y014300D01*
X010910Y014550D01*
X011410Y014550D01*
X011660Y014300D01*
X011660Y013800D01*
X011410Y013550D01*
X010910Y013550D01*
X010660Y013800D01*
X010410Y013550D01*
X009910Y013550D01*
X009660Y013800D01*
X009410Y013550D01*
X008910Y013550D01*
X008660Y013800D01*
X008410Y013550D01*
X007910Y013550D01*
X007660Y013800D01*
X007410Y013550D01*
X006910Y013550D01*
X006660Y013800D01*
X006410Y013550D01*
X005910Y013550D01*
X005660Y013800D01*
X005410Y013550D01*
X004910Y013550D01*
X004660Y013800D01*
X004410Y013550D01*
X003910Y013550D01*
X003660Y013800D01*
X003660Y014300D01*
X003910Y014550D01*
X004410Y014550D01*
X004660Y014300D01*
X004910Y014550D01*
X005410Y014550D01*
X005660Y014300D01*
X005910Y014550D01*
X005660Y012800D02*
X005410Y012550D01*
X005410Y012050D01*
X005660Y011800D01*
X005410Y011550D01*
X005410Y011050D01*
X005660Y010800D01*
X005410Y010550D01*
X005410Y010050D01*
X005660Y009800D01*
X006160Y009800D01*
X006410Y010050D01*
X006410Y010550D01*
X006160Y010800D01*
X006410Y011050D01*
X006410Y011550D01*
X006160Y011800D01*
X006410Y012050D01*
X006410Y012550D01*
X006160Y012800D01*
X005660Y012800D01*
X004410Y012550D02*
X004410Y012050D01*
X004160Y011800D01*
X004410Y011550D01*
X004410Y011050D01*
X004160Y010800D01*
X004410Y010550D01*
X004410Y010050D01*
X004160Y009800D01*
X003660Y009800D01*
X003410Y010050D01*
X003410Y010550D01*
X003660Y010800D01*
X003410Y011050D01*
X003410Y011550D01*
X003660Y011800D01*
X003410Y012050D01*
X003410Y012550D01*
X003660Y012800D01*
X004160Y012800D01*
X004410Y012550D01*
X002600Y011890D02*
X002220Y011890D01*
X001410Y012050D02*
X001160Y011800D01*
X001410Y011550D01*
X001410Y011050D01*
X001160Y010800D01*
X001410Y010550D01*
X001410Y010050D01*
X001160Y009800D01*
X000660Y009800D01*
X000410Y010050D01*
X000410Y010550D01*
X000660Y010800D01*
X000410Y011050D01*
X000410Y011550D01*
X000660Y011800D01*
X000410Y012050D01*
X000410Y012550D01*
X000660Y012800D01*
X001160Y012800D01*
X001410Y012550D01*
X001410Y012050D01*
X002220Y010710D02*
X002290Y010710D01*
X002530Y010710D01*
X002600Y010710D01*
X002530Y010710D02*
X002528Y010731D01*
X002523Y010751D01*
X002514Y010770D01*
X002502Y010787D01*
X002487Y010802D01*
X002470Y010814D01*
X002451Y010823D01*
X002431Y010828D01*
X002410Y010830D01*
X002389Y010828D01*
X002369Y010823D01*
X002350Y010814D01*
X002333Y010802D01*
X002318Y010787D01*
X002306Y010770D01*
X002297Y010751D01*
X002292Y010731D01*
X002290Y010710D01*
X005730Y005940D02*
X005730Y005170D01*
X005730Y004930D01*
X005730Y004160D01*
X005800Y004160D01*
X005730Y004930D02*
X005751Y004932D01*
X005771Y004937D01*
X005790Y004946D01*
X005807Y004958D01*
X005822Y004973D01*
X005834Y004990D01*
X005843Y005009D01*
X005848Y005029D01*
X005850Y005050D01*
X005848Y005071D01*
X005843Y005091D01*
X005834Y005110D01*
X005822Y005127D01*
X005807Y005142D01*
X005790Y005154D01*
X005771Y005163D01*
X005751Y005168D01*
X005730Y005170D01*
X005730Y005940D02*
X005800Y005940D01*
X008040Y006620D02*
X008040Y007020D01*
X009520Y005940D02*
X009590Y005940D01*
X009590Y004160D01*
X009520Y004160D01*
X008300Y003480D02*
X008300Y003080D01*
X008410Y002050D02*
X007910Y002050D01*
X007660Y001800D01*
X007410Y002050D01*
X006910Y002050D01*
X006660Y001800D01*
X006410Y002050D01*
X005910Y002050D01*
X005660Y001800D01*
X005410Y002050D01*
X004910Y002050D01*
X004660Y001800D01*
X004410Y002050D01*
X003910Y002050D01*
X003660Y001800D01*
X003410Y002050D01*
X002910Y002050D01*
X002660Y001800D01*
X002410Y002050D01*
X001910Y002050D01*
X001660Y001800D01*
X001410Y002050D01*
X000910Y002050D01*
X000660Y001800D01*
X000660Y001300D01*
X000910Y001050D01*
X001410Y001050D01*
X001660Y001300D01*
X001910Y001050D01*
X002410Y001050D01*
X002660Y001300D01*
X002910Y001050D01*
X003410Y001050D01*
X003660Y001300D01*
X003910Y001050D01*
X004410Y001050D01*
X004660Y001300D01*
X004910Y001050D01*
X005410Y001050D01*
X005660Y001300D01*
X005910Y001050D01*
X006410Y001050D01*
X006660Y001300D01*
X006910Y001050D01*
X007410Y001050D01*
X007660Y001300D01*
X007910Y001050D01*
X008410Y001050D01*
X008660Y001300D01*
X008910Y001050D01*
X009410Y001050D01*
X009660Y001300D01*
X009910Y001050D01*
X010410Y001050D01*
X010660Y001300D01*
X010910Y001050D01*
X011410Y001050D01*
X011660Y001300D01*
X011910Y001050D01*
X012410Y001050D01*
X012660Y001300D01*
X012910Y001050D01*
X013410Y001050D01*
X013660Y001300D01*
X013910Y001050D01*
X014410Y001050D01*
X014660Y001300D01*
X014660Y001800D01*
X014410Y002050D01*
X013910Y002050D01*
X013660Y001800D01*
X013410Y002050D01*
X012910Y002050D01*
X012660Y001800D01*
X012410Y002050D01*
X011910Y002050D01*
X011660Y001800D01*
X011410Y002050D01*
X010910Y002050D01*
X010660Y001800D01*
X010410Y002050D01*
X009910Y002050D01*
X009660Y001800D01*
X009410Y002050D01*
X008910Y002050D01*
X008660Y001800D01*
X008410Y002050D01*
X008660Y009800D02*
X008410Y010050D01*
X008410Y010550D01*
X008660Y010800D01*
X008410Y011050D01*
X008410Y011550D01*
X008660Y011800D01*
X008410Y012050D01*
X008410Y012550D01*
X008660Y012800D01*
X009160Y012800D01*
X009410Y012550D01*
X009410Y012050D01*
X009160Y011800D01*
X009410Y011550D01*
X009410Y011050D01*
X009160Y010800D01*
X009410Y010550D01*
X009410Y010050D01*
X009160Y009800D01*
X008660Y009800D01*
X007600Y010710D02*
X007220Y010710D01*
X007220Y011890D02*
X007290Y011890D01*
X007530Y011890D01*
X007600Y011890D01*
X007530Y011890D02*
X007528Y011869D01*
X007523Y011849D01*
X007514Y011830D01*
X007502Y011813D01*
X007487Y011798D01*
X007470Y011786D01*
X007451Y011777D01*
X007431Y011772D01*
X007410Y011770D01*
X007389Y011772D01*
X007369Y011777D01*
X007350Y011786D01*
X007333Y011798D01*
X007318Y011813D01*
X007306Y011830D01*
X007297Y011849D01*
X007292Y011869D01*
X007290Y011890D01*
D14*
X015772Y012989D02*
X015774Y013016D01*
X015780Y013043D01*
X015789Y013069D01*
X015802Y013093D01*
X015818Y013116D01*
X015837Y013135D01*
X015859Y013152D01*
X015883Y013166D01*
X015908Y013176D01*
X015935Y013183D01*
X015962Y013186D01*
X015990Y013185D01*
X016017Y013180D01*
X016043Y013172D01*
X016067Y013160D01*
X016090Y013144D01*
X016111Y013126D01*
X016128Y013105D01*
X016143Y013081D01*
X016154Y013056D01*
X016162Y013030D01*
X016166Y013003D01*
X016166Y012975D01*
X016162Y012948D01*
X016154Y012922D01*
X016143Y012897D01*
X016128Y012873D01*
X016111Y012852D01*
X016090Y012834D01*
X016068Y012818D01*
X016043Y012806D01*
X016017Y012798D01*
X015990Y012793D01*
X015962Y012792D01*
X015935Y012795D01*
X015908Y012802D01*
X015883Y012812D01*
X015859Y012826D01*
X015837Y012843D01*
X015818Y012862D01*
X015802Y012885D01*
X015789Y012909D01*
X015780Y012935D01*
X015774Y012962D01*
X015772Y012989D01*
X015772Y017989D02*
X015774Y018016D01*
X015780Y018043D01*
X015789Y018069D01*
X015802Y018093D01*
X015818Y018116D01*
X015837Y018135D01*
X015859Y018152D01*
X015883Y018166D01*
X015908Y018176D01*
X015935Y018183D01*
X015962Y018186D01*
X015990Y018185D01*
X016017Y018180D01*
X016043Y018172D01*
X016067Y018160D01*
X016090Y018144D01*
X016111Y018126D01*
X016128Y018105D01*
X016143Y018081D01*
X016154Y018056D01*
X016162Y018030D01*
X016166Y018003D01*
X016166Y017975D01*
X016162Y017948D01*
X016154Y017922D01*
X016143Y017897D01*
X016128Y017873D01*
X016111Y017852D01*
X016090Y017834D01*
X016068Y017818D01*
X016043Y017806D01*
X016017Y017798D01*
X015990Y017793D01*
X015962Y017792D01*
X015935Y017795D01*
X015908Y017802D01*
X015883Y017812D01*
X015859Y017826D01*
X015837Y017843D01*
X015818Y017862D01*
X015802Y017885D01*
X015789Y017909D01*
X015780Y017935D01*
X015774Y017962D01*
X015772Y017989D01*
D15*
X015728Y017410D02*
X015777Y017362D01*
X015777Y017313D01*
X015728Y017265D01*
X015631Y017265D01*
X015583Y017313D01*
X015583Y017362D01*
X015631Y017410D01*
X015728Y017410D01*
X015728Y017265D02*
X015777Y017217D01*
X015777Y017168D01*
X015728Y017120D01*
X015631Y017120D01*
X015583Y017168D01*
X015583Y017217D01*
X015631Y017265D01*
X015482Y017168D02*
X015433Y017120D01*
X015337Y017120D01*
X015288Y017168D01*
X015288Y017362D01*
X015337Y017410D01*
X015433Y017410D01*
X015482Y017362D01*
X015189Y017410D02*
X015092Y017410D01*
X015140Y017410D02*
X015140Y017120D01*
X015092Y017120D02*
X015189Y017120D01*
X014991Y017168D02*
X014991Y017362D01*
X014942Y017410D01*
X014846Y017410D01*
X014797Y017362D01*
X014797Y017168D01*
X014846Y017120D01*
X014942Y017120D01*
X014991Y017168D01*
X014696Y017168D02*
X014648Y017120D01*
X014551Y017120D01*
X014503Y017168D01*
X014551Y017265D02*
X014503Y017313D01*
X014503Y017362D01*
X014551Y017410D01*
X014648Y017410D01*
X014696Y017362D01*
X014648Y017265D02*
X014696Y017217D01*
X014696Y017168D01*
X014648Y017265D02*
X014551Y017265D01*
X015878Y017168D02*
X015878Y017120D01*
X015926Y017120D01*
X015926Y017168D01*
X015878Y017168D01*
X015801Y012480D02*
X015849Y012432D01*
X015849Y012383D01*
X015801Y012335D01*
X015704Y012335D01*
X015655Y012383D01*
X015655Y012432D01*
X015704Y012480D01*
X015801Y012480D01*
X015801Y012335D02*
X015849Y012287D01*
X015849Y012238D01*
X015801Y012190D01*
X015704Y012190D01*
X015655Y012238D01*
X015655Y012287D01*
X015704Y012335D01*
X015554Y012238D02*
X015506Y012190D01*
X015409Y012190D01*
X015361Y012238D01*
X015361Y012432D01*
X015409Y012480D01*
X015506Y012480D01*
X015554Y012432D01*
X015261Y012480D02*
X015164Y012480D01*
X015213Y012480D02*
X015213Y012190D01*
X015261Y012190D02*
X015164Y012190D01*
X015063Y012238D02*
X015063Y012432D01*
X015015Y012480D01*
X014918Y012480D01*
X014870Y012432D01*
X014870Y012238D01*
X014918Y012190D01*
X015015Y012190D01*
X015063Y012238D01*
X014768Y012238D02*
X014720Y012190D01*
X014623Y012190D01*
X014575Y012238D01*
X014623Y012335D02*
X014720Y012335D01*
X014768Y012287D01*
X014768Y012238D01*
X014623Y012335D02*
X014575Y012383D01*
X014575Y012432D01*
X014623Y012480D01*
X014720Y012480D01*
X014768Y012432D01*
X008147Y009803D02*
X008147Y009755D01*
X008098Y009755D01*
X008098Y009803D01*
X008147Y009803D01*
X007997Y009755D02*
X007804Y009755D01*
X007997Y009948D01*
X007997Y009997D01*
X007949Y010045D01*
X007852Y010045D01*
X007804Y009997D01*
X007702Y009997D02*
X007702Y009948D01*
X007654Y009900D01*
X007702Y009852D01*
X007702Y009803D01*
X007654Y009755D01*
X007557Y009755D01*
X007509Y009803D01*
X007606Y009900D02*
X007654Y009900D01*
X007702Y009997D02*
X007654Y010045D01*
X007557Y010045D01*
X007509Y009997D01*
X007408Y010045D02*
X007214Y010045D01*
X007311Y010045D02*
X007311Y009755D01*
X007113Y009803D02*
X007113Y009997D01*
X007065Y010045D01*
X006968Y010045D01*
X006920Y009997D01*
X006920Y009803D01*
X006968Y009755D01*
X007065Y009755D01*
X007113Y009803D01*
X006818Y009803D02*
X006770Y009755D01*
X006673Y009755D01*
X006625Y009803D01*
X006673Y009900D02*
X006770Y009900D01*
X006818Y009852D01*
X006818Y009803D01*
X006673Y009900D02*
X006625Y009948D01*
X006625Y009997D01*
X006673Y010045D01*
X006770Y010045D01*
X006818Y009997D01*
X006742Y011933D02*
X006742Y012247D01*
X006899Y012247D02*
X006585Y011933D01*
X006585Y012090D02*
X006899Y012090D01*
X006899Y011933D02*
X006585Y012247D01*
X005687Y015215D02*
X005373Y015529D01*
X005530Y015529D02*
X005530Y015215D01*
X005373Y015215D02*
X005687Y015529D01*
X005687Y015372D02*
X005373Y015372D01*
X002399Y016518D02*
X002350Y016470D01*
X002254Y016470D01*
X002205Y016518D01*
X002104Y016470D02*
X001911Y016470D01*
X002104Y016663D01*
X002104Y016712D01*
X002056Y016760D01*
X001959Y016760D01*
X001911Y016712D01*
X001810Y016712D02*
X001761Y016760D01*
X001664Y016760D01*
X001616Y016712D01*
X001515Y016760D02*
X001321Y016760D01*
X001418Y016760D02*
X001418Y016470D01*
X001616Y016470D02*
X001810Y016663D01*
X001810Y016712D01*
X001810Y016470D02*
X001616Y016470D01*
X001220Y016518D02*
X001220Y016712D01*
X001172Y016760D01*
X001075Y016760D01*
X001027Y016712D01*
X001027Y016518D01*
X001075Y016470D01*
X001172Y016470D01*
X001220Y016518D01*
X000926Y016518D02*
X000926Y016567D01*
X000877Y016615D01*
X000780Y016615D01*
X000732Y016663D01*
X000732Y016712D01*
X000780Y016760D01*
X000877Y016760D01*
X000926Y016712D01*
X000926Y016518D02*
X000877Y016470D01*
X000780Y016470D01*
X000732Y016518D01*
X002205Y016712D02*
X002254Y016760D01*
X002350Y016760D01*
X002399Y016712D01*
X002399Y016663D01*
X002350Y016615D01*
X002399Y016567D01*
X002399Y016518D01*
X002350Y016615D02*
X002302Y016615D01*
X002921Y010667D02*
X003235Y010353D01*
X003235Y010510D02*
X002921Y010510D01*
X002921Y010353D02*
X003235Y010667D01*
X003078Y010667D02*
X003078Y010353D01*
X002781Y010005D02*
X002823Y009964D01*
X002823Y009922D01*
X002781Y009880D01*
X002823Y009838D01*
X002823Y009797D01*
X002781Y009755D01*
X002698Y009755D01*
X002656Y009797D01*
X002565Y009755D02*
X002398Y009755D01*
X002565Y009922D01*
X002565Y009964D01*
X002524Y010005D01*
X002440Y010005D01*
X002398Y009964D01*
X002307Y010005D02*
X002141Y010005D01*
X002224Y010005D02*
X002224Y009755D01*
X002050Y009797D02*
X002050Y009964D01*
X002008Y010005D01*
X001925Y010005D01*
X001883Y009964D01*
X001883Y009797D01*
X001925Y009755D01*
X002008Y009755D01*
X002050Y009797D01*
X001792Y009797D02*
X001750Y009755D01*
X001667Y009755D01*
X001625Y009797D01*
X001667Y009880D02*
X001625Y009922D01*
X001625Y009964D01*
X001667Y010005D01*
X001750Y010005D01*
X001792Y009964D01*
X001750Y009880D02*
X001792Y009838D01*
X001792Y009797D01*
X001750Y009880D02*
X001667Y009880D01*
X002656Y009964D02*
X002698Y010005D01*
X002781Y010005D01*
X002781Y009880D02*
X002740Y009880D01*
X005503Y003899D02*
X005817Y003585D01*
X005817Y003742D02*
X005503Y003742D01*
X005503Y003585D02*
X005817Y003899D01*
X005660Y003899D02*
X005660Y003585D01*
X015850Y003888D02*
X015898Y003840D01*
X015995Y003840D01*
X016043Y003888D01*
X016043Y003937D01*
X015995Y003985D01*
X015898Y003985D01*
X015850Y004033D01*
X015850Y004082D01*
X015898Y004130D01*
X015995Y004130D01*
X016043Y004082D01*
X016145Y004082D02*
X016145Y003888D01*
X016193Y003840D01*
X016290Y003840D01*
X016338Y003888D01*
X016338Y004082D01*
X016290Y004130D01*
X016193Y004130D01*
X016145Y004082D01*
X016439Y004130D02*
X016633Y004130D01*
X016536Y004130D02*
X016536Y003840D01*
X016734Y003840D02*
X016927Y004033D01*
X016927Y004082D01*
X016879Y004130D01*
X016782Y004130D01*
X016734Y004082D01*
X016734Y003840D02*
X016927Y003840D01*
X017029Y003840D02*
X017222Y004033D01*
X017222Y004082D01*
X017174Y004130D01*
X017077Y004130D01*
X017029Y004082D01*
X017029Y003840D02*
X017222Y003840D01*
X017323Y003888D02*
X017372Y003840D01*
X017468Y003840D01*
X017517Y003888D01*
X017517Y003937D01*
X017468Y003985D01*
X017420Y003985D01*
X017468Y003985D02*
X017517Y004033D01*
X017517Y004082D01*
X017468Y004130D01*
X017372Y004130D01*
X017323Y004082D01*
X017618Y003888D02*
X017666Y003888D01*
X017666Y003840D01*
X017618Y003840D01*
X017618Y003888D01*
D16*
X009573Y016165D02*
X009417Y016165D01*
X009338Y016243D01*
X009338Y016400D01*
X009573Y016400D01*
X009652Y016322D01*
X009652Y016243D01*
X009573Y016165D01*
X009338Y016400D02*
X009495Y016557D01*
X009652Y016635D01*
X009016Y016635D02*
X009016Y016165D01*
X008859Y016165D02*
X009173Y016165D01*
X008859Y016479D02*
X009016Y016635D01*
X008694Y016400D02*
X008381Y016400D01*
X008215Y016243D02*
X008137Y016165D01*
X007980Y016165D01*
X007902Y016243D01*
X007902Y016557D01*
X007980Y016635D01*
X008137Y016635D01*
X008215Y016557D01*
X007739Y016635D02*
X007583Y016635D01*
X007661Y016635D02*
X007661Y016165D01*
X007583Y016165D02*
X007739Y016165D01*
X007417Y016243D02*
X007417Y016557D01*
X007339Y016635D01*
X007182Y016635D01*
X007104Y016557D01*
X007104Y016243D01*
X007182Y016165D01*
X007339Y016165D01*
X007417Y016243D01*
X006939Y016243D02*
X006860Y016165D01*
X006703Y016165D01*
X006625Y016243D01*
X006703Y016400D02*
X006860Y016400D01*
X006939Y016322D01*
X006939Y016243D01*
X006703Y016400D02*
X006625Y016479D01*
X006625Y016557D01*
X006703Y016635D01*
X006860Y016635D01*
X006939Y016557D01*
D17*
X002950Y017200D02*
X002950Y015900D01*
X000370Y015900D01*
X000370Y017200D01*
X002950Y017200D01*
X002410Y018550D02*
X001910Y018550D01*
X001660Y018800D01*
X001410Y018550D01*
X000910Y018550D01*
X000660Y018800D01*
X000660Y019300D01*
X000910Y019550D01*
X001410Y019550D01*
X001660Y019300D01*
X001910Y019550D01*
X002410Y019550D01*
X002660Y019300D01*
X002660Y018800D01*
X002410Y018550D01*
X002410Y014550D02*
X001910Y014550D01*
X001660Y014300D01*
X001410Y014550D01*
X000910Y014550D01*
X000660Y014300D01*
X000660Y013800D01*
X000910Y013550D01*
X001410Y013550D01*
X001660Y013800D01*
X001910Y013550D01*
X002410Y013550D01*
X002660Y013800D01*
X002660Y014300D01*
X002410Y014550D01*
X015370Y004700D02*
X015370Y003400D01*
X017950Y003400D01*
X017950Y004700D01*
X015370Y004700D01*
X015910Y006050D02*
X016410Y006050D01*
X016660Y006300D01*
X016910Y006050D01*
X017410Y006050D01*
X017660Y006300D01*
X017660Y006800D01*
X017410Y007050D01*
X016910Y007050D01*
X016660Y006800D01*
X016410Y007050D01*
X015910Y007050D01*
X015660Y006800D01*
X015660Y006300D01*
X015910Y006050D01*
X015910Y002050D02*
X015660Y001800D01*
X015660Y001300D01*
X015910Y001050D01*
X016410Y001050D01*
X016660Y001300D01*
X016910Y001050D01*
X017410Y001050D01*
X017660Y001300D01*
X017660Y001800D01*
X017410Y002050D01*
X016910Y002050D01*
X016660Y001800D01*
X016410Y002050D01*
X015910Y002050D01*
D18*
X005123Y004690D02*
X005018Y004585D01*
X004807Y004585D01*
X004702Y004690D01*
X004702Y004795D01*
X004807Y004900D01*
X005018Y004900D01*
X005123Y004795D01*
X005123Y004690D01*
X005018Y004900D02*
X005123Y005005D01*
X005123Y005110D01*
X005018Y005216D01*
X004807Y005216D01*
X004702Y005110D01*
X004702Y005005D01*
X004807Y004900D01*
X004478Y005005D02*
X004478Y005110D01*
X004373Y005216D01*
X004163Y005216D01*
X004058Y005110D01*
X003834Y005110D02*
X003834Y004900D01*
X003728Y004795D01*
X003413Y004795D01*
X003189Y004690D02*
X003189Y005110D01*
X003084Y005216D01*
X002874Y005216D01*
X002769Y005110D01*
X002769Y004690D01*
X002874Y004585D01*
X003084Y004585D01*
X003189Y004690D01*
X003413Y004585D02*
X003413Y005216D01*
X003728Y005216D01*
X003834Y005110D01*
X004058Y004585D02*
X004478Y005005D01*
X004478Y004585D02*
X004058Y004585D01*
X002544Y004690D02*
X002439Y004585D01*
X002229Y004585D01*
X002124Y004690D01*
X001900Y004690D02*
X001900Y004795D01*
X001795Y004900D01*
X001585Y004900D01*
X001480Y005005D01*
X001480Y005110D01*
X001585Y005216D01*
X001795Y005216D01*
X001900Y005110D01*
X002124Y005110D02*
X002124Y005005D01*
X002229Y004900D01*
X002439Y004900D01*
X002544Y004795D01*
X002544Y004690D01*
X002544Y005110D02*
X002439Y005216D01*
X002229Y005216D01*
X002124Y005110D01*
X001900Y004690D02*
X001795Y004585D01*
X001585Y004585D01*
X001480Y004690D01*
X001045Y004585D02*
X001045Y005216D01*
X000835Y005216D02*
X001255Y005216D01*
M02*
